<mxfile host="app.diagrams.net" modified="2023-12-28T02:41:20.192Z" agent="Mozilla/5.0 (Windows NT 10.0; Win64; x64) AppleWebKit/537.36 (KHTML, like Gecko) Chrome/120.0.0.0 Safari/537.36" etag="TZliuRChI5n9UflAsHMk" version="22.1.12" type="github">
  <diagram id="iR6011L_oOSFaQKrWael" name="第 1 页">
    <mxGraphModel dx="1743" dy="1832" grid="1" gridSize="10" guides="1" tooltips="1" connect="1" arrows="1" fold="1" page="1" pageScale="1" pageWidth="827" pageHeight="1169" math="0" shadow="0">
      <root>
        <mxCell id="0" />
        <mxCell id="1" parent="0" />
        <mxCell id="b9h8UNRZV26uDY9mIO9D-11" style="edgeStyle=orthogonalEdgeStyle;rounded=0;orthogonalLoop=1;jettySize=auto;html=1;entryX=1.008;entryY=0.493;entryDx=0;entryDy=0;entryPerimeter=0;dashed=1;fontColor=#000000;endArrow=block;endFill=1;" parent="1" source="pi-8fzJARmSawF2j8Gif-2" target="pi-8fzJARmSawF2j8Gif-63" edge="1">
          <mxGeometry relative="1" as="geometry" />
        </mxCell>
        <mxCell id="pi-8fzJARmSawF2j8Gif-2" value="[place order]" style="shape=image;verticalLabelPosition=bottom;labelBackgroundColor=default;verticalAlign=top;aspect=fixed;imageAspect=0;image=data:image/png,iVBORw0KGgoAAAANSUhEUgAAASAAAACUCAYAAAAzr/RXAAAMPmlDQ1BJQ0MgUHJvZmlsZQAASImVVwdYU8kWnluSkEBooUsJvQkiNYCUEFoA6UWwEZIAocQYCCp2ZFHBtaBiARu6KqLYAbEjioVFsfcFERVlXSzYlTcpoOu+8r2Tb+7988+Z/5w5d24ZANROcUSiHFQdgFxhvjg2JIA+LjmFTnoKEIABHfgjcbh5ImZ0dASANnT+u727Cb2hXXOQav2z/7+aBo+fxwUAiYY4jZfHzYX4EAB4FVckzgeAKOXNp+WLpBg2oCWGCUK8SIoz5LhKitPkeJ/MJz6WBXELAEoqHI44AwDVK5CnF3AzoIZqP8ROQp5ACIAaHWLf3NwpPIhTIbaBPiKIpfqMtB90Mv6mmTasyeFkDGP5XGSmFCjIE+VwZvyf5fjflpsjGYphBZtKpjg0VjpnWLfb2VPCpVgF4j5hWmQUxJoQfxDwZP4Qo5RMSWiC3B815OaxYM3gVQaoE48TGA6xIcTBwpzICAWfli4IZkMMVwg6XZDPjodYD+JF/LygOIXPZvGUWEUstD5dzGIq+PMcsSyuNNZDSXYCU6H/OpPPVuhjqoWZ8UkQUyC2KBAkRkKsCrFjXnZcuMJnTGEmK3LIRyyJleZvAXEsXxgSINfHCtLFwbEK/9LcvKH5YpszBexIBT6QnxkfKq8P1sLlyPKHc8Gu8IXMhCEdft64iKG58PiBQfK5Y8/4woQ4hc4HUX5ArHwsThHlRCv8cTN+ToiUN4PYNa8gTjEWT8yHC1Kuj6eL8qPj5XnihVmcsGh5PvhyEAFYIBDQgQS2NDAFZAFBe19DH/wn7wkGHCAGGYAPHBTM0IgkWY8QHuNAIfgTIj7IGx4XIOvlgwLIfx1m5UcHkC7rLZCNyAZPIM4F4SAH/pfIRgmHoyWCx5AR/CM6BzYuzDcHNmn/v+eH2O8MEzIRCkYyFJGuNuRJDCIGEkOJwURb3AD3xb3xCHj0h80ZZ+CeQ/P47k94QuggPCLcIHQS7kwWFIl/ynIs6IT6wYpapP1YC9wKarrhAbgPVIfKuA5uABxwVxiHifvByG6QZSnyllaF/pP232bww9VQ+JGdyChZl+xPtvl5pKqdqtuwirTWP9ZHnmvacL1Zwz0/x2f9UH0ePIf/7Iktwg5irdhp7AJ2DGsAdOwk1oi1YceleHh1PZatrqFosbJ8sqGO4B/xhq6stJJ5TrVOvU5f5H35/OnSZzRgTRHNEAsyMvPpTPhG4NPZQq7jSLqzk7MLANL3i/zx9SZG9t5AdNq+cwv+AMDn5ODg4NHvXNhJAPZ7wNv/yHfOhgFfHcoAnD/ClYgL5BwuPRDgU0IN3mn6wBiYAxs4H2fgDryBPwgCYSAKxINkMAlmnwnXuRhMA7PAfFACysBysBqsB5vAVrAT7AEHQAM4Bk6Dc+ASuAJugHtw9fSAF6AfvAOfEQQhIVSEhugjJoglYo84IwzEFwlCIpBYJBlJRTIQISJBZiELkDKkHFmPbEFqkP3IEeQ0cgHpQO4gXUgv8hr5hGKoCqqFGqFW6CiUgTLRcDQenYhmoFPRQrQYXYquRavR3Wg9ehq9hN5AO9EX6AAGMGVMBzPFHDAGxsKisBQsHRNjc7BSrAKrxuqwJnidr2GdWB/2ESfiNJyOO8AVHIon4Fx8Kj4HX4Kvx3fi9XgLfg3vwvvxbwQqwZBgT/AisAnjCBmEaYQSQgVhO+Ew4Sy8l3oI74hEog7RmugB78VkYhZxJnEJcQNxL/EUsYPYTRwgkUj6JHuSDymKxCHlk0pI60i7SSdJV0k9pA9KykomSs5KwUopSkKlIqUKpV1KJ5SuKj1V+kxWJ1uSvchRZB55BnkZeRu5iXyZ3EP+TNGgWFN8KPGULMp8ylpKHeUs5T7ljbKyspmyp3KMskB5nvJa5X3K55W7lD+qaKrYqbBUJqhIVJaq7FA5pXJH5Q2VSrWi+lNTqPnUpdQa6hnqQ+oHVZqqoypblac6V7VStV71qupLNbKapRpTbZJaoVqF2kG1y2p96mR1K3WWOkd9jnql+hH1W+oDGjSN0RpRGrkaSzR2aVzQeKZJ0rTSDNLkaRZrbtU8o9lNw2jmNBaNS1tA20Y7S+vRImpZa7G1srTKtPZotWv1a2tqu2onak/XrtQ+rt2pg+lY6bB1cnSW6RzQuanzSddIl6nL112sW6d7Vfe93gg9fz2+XqneXr0bep/06fpB+tn6K/Qb9B8Y4AZ2BjEG0ww2Gpw16BuhNcJ7BHdE6YgDI+4aooZ2hrGGMw23GrYZDhgZG4UYiYzWGZ0x6jPWMfY3zjJeZXzCuNeEZuJrIjBZZXLS5Dldm86k59DX0lvo/aaGpqGmEtMtpu2mn82szRLMisz2mj0wp5gzzNPNV5k3m/dbmFiMtZhlUWtx15JsybDMtFxj2Wr53sraKslqoVWD1TNrPWu2daF1rfV9G6qNn81Um2qb67ZEW4Zttu0G2yt2qJ2bXaZdpd1le9Te3V5gv8G+YyRhpOdI4cjqkbccVByYDgUOtQ5djjqOEY5Fjg2OL0dZjEoZtWJU66hvTm5OOU7bnO6N1hwdNrpodNPo1852zlznSufrLlSXYJe5Lo0ur1ztXfmuG11vu9HcxrotdGt2++ru4S52r3Pv9bDwSPWo8rjF0GJEM5YwznsSPAM853oe8/zo5e6V73XA6y9vB+9s713ez8ZYj+GP2Tam28fMh+OzxafTl+6b6rvZt9PP1I/jV+33yN/cn+e/3f8p05aZxdzNfBngFCAOOBzwnuXFms06FYgFhgSWBrYHaQYlBK0PehhsFpwRXBvcH+IWMjPkVCghNDx0RegtthGby65h94d5hM0OawlXCY8LXx/+KMIuQhzRNBYdGzZ25dj7kZaRwsiGKBDFjloZ9SDaOnpq9NEYYkx0TGXMk9jRsbNiW+NocZPjdsW9iw+IXxZ/L8EmQZLQnKiWOCGxJvF9UmBSeVLnuFHjZo+7lGyQLEhuTCGlJKZsTxkYHzR+9fieCW4TSibcnGg9cfrEC5MMJuVMOj5ZbTJn8sFUQmpS6q7UL5woTjVnII2dVpXWz2Vx13Bf8Px5q3i9fB9+Of9puk96efqzDJ+MlRm9mX6ZFZl9ApZgveBVVmjWpqz32VHZO7IHc5Jy9uYq5abmHhFqCrOFLVOMp0yf0iGyF5WIOqd6TV09tV8cLt6eh+RNzGvM14If8m0SG8kvkq4C34LKgg/TEqcdnK4xXTi9bYbdjMUznhYGF/42E5/Jndk8y3TW/Flds5mzt8xB5qTNaZ5rPrd4bs+8kHk751PmZ8//vcipqLzo7YKkBU3FRsXzirt/CfmltkS1RFxya6H3wk2L8EWCRe2LXRavW/ytlFd6scyprKLsyxLukou/jv517a+DS9OXti9zX7ZxOXG5cPnNFX4rdpZrlBeWd68cu7J+FX1V6aq3qyevvlDhWrFpDWWNZE3n2oi1jess1i1f92V95voblQGVe6sMqxZXvd/A23B1o//Guk1Gm8o2fdos2Hx7S8iW+mqr6oqtxK0FW59sS9zW+hvjt5rtBtvLtn/dIdzRuTN2Z0uNR03NLsNdy2rRWklt7+4Ju6/sCdzTWOdQt2Wvzt6yfWCfZN/z/an7bx4IP9B8kHGw7pDloarDtMOl9Uj9jPr+hsyGzsbkxo4jYUeam7ybDh91PLrjmOmxyuPax5edoJwoPjF4svDkwCnRqb7TGae7myc33zsz7sz1lpiW9rPhZ8+fCz53ppXZevK8z/ljF7wuHLnIuNhwyf1SfZtb2+Hf3X4/3O7eXn/Z43LjFc8rTR1jOk5c9bt6+lrgtXPX2dcv3Yi80XEz4ebtWxNudd7m3X52J+fOq7sFdz/fm3efcL/0gfqDioeGD6v/sP1jb6d75/GuwK62R3GP7nVzu188znv8paf4CfVJxVOTpzXPnJ8d6w3uvfJ8/POeF6IXn/tK/tT4s+qlzctDf/n/1dY/rr/nlfjV4Oslb/Tf7Hjr+rZ5IHrg4bvcd5/fl37Q/7DzI+Nj66ekT08/T/tC+rL2q+3Xpm/h3+4P5g4OijhijuxTAIMNTU8H4PUOAKjJANDg/owyXr7/kxki37PKEPhPWL5HlJk7AHXw+z2mD37d3AJg3za4/YL6ahMAiKYCEO8JUBeX4Ta0V5PtK6VGhPuAzZFf03LTwL8x+Z7zh7x/PgOpqiv4+fwvzpJ8P5CR8cwAAABsZVhJZk1NACoAAAAIAAQBGgAFAAAAAQAAAD4BGwAFAAAAAQAAAEYBKAADAAAAAQACAACHaQAEAAAAAQAAAE4AAAAAAAAAkAAAAAEAAACQAAAAAQACoAIABAAAAAEAAAEgoAMABAAAAAEAAACUAAAAAMy5k8AAAAAJcEhZcwAAFiUAABYlAUlSJPAAAA1QSURBVHgB7Z3bbxTXHcdZ33eNb9yMAas2mBAKTRMUHBRMJC4KiYH2BVmoImmRKvpAxQM8RPSt6h+QqHmplAoFKU+JIqTwgMRLiBCRDGmkJE6cpg1YoIJtMOYS40tjUyZKvvObldMl65mzOzsfv/D9nZk9v/P7nN0f58ycOZN68PBvHn8QgAAECkCgrAA+cQkBCEDgOwIkIL4IEIBAwQiQgAqGHscQgAAJiO8ABCBQMAIkoIKhxzEEIEAC4jsAAQgUjAAJqGDocQwBCJCA+A5AAAIFI1BRMM84hkCJEbh165YiOn/+vLQnnn76adnNzc3SZWXJHgMkO3p9DRAQgEAhCJCACkEdnxCAwHcEmILxRYBASASmpqZU07lz56Q9cfHiRdlbtmyR3rx5s3Qmk5FOimAElJSeJk4IFCEBElARdgpNgkBSCDAFS0pPE2dBCQwNDcn/u+++K93b2yvd3d0tvX79eumqqirpUhOMgEqtR4kHAjEiQAKKUWfRVAiUGgGmYKXWo8RT9ATsJqRXr15Ve0+cOCG9evVq6V27dkm3trZKe6KiIt4/YUZAge7EgAAEXBIgAbmkjS8IQCBAIN7jt0AoGBCIN4GJiQkF8Nlnn0kPDAxIP/vss9Ke2L59u+yGhgbpuAhGQHHpKdoJgRIkQAIqwU4lJAjEhQBTsLj0FO1MLIF79+4p9jNnzkh7wi5k3Llzp47Z7T/q6+tVXmyCEVCx9QjtgUCCCJCAEtTZhAqBYiOQcvFq5tu3byvuvr4+aU9MTk4GbAwIxJWAnSqdPXs2EMb4+HjAjsKorKxUte3t7dIvvviidEdHh3QxPGPGCEjdgYAABFwTIAG5Jo4/CEBABEhAQoGAAARcE4jsGtD09LRiefPNN6UvXLggjYAABKInYB9Y7ezslMMdO3ZIL1++XNqlYATkkja+IACBAAESUAAHBgQg4JJAZCuhU6mU4rC7/dfW1qrcE3ZvlMABDAjEjID9LtsHS70w7DHXYaXTabmsqamRrqurky6UYARUKPL4hQAE5pGA+BJAAAIFIxDZXTAbkV0JPTw8bA/Nm5mZCdgYEIgrgdHRUTX9nXfekfbE2NhYwI7CsO+ZX7VqlVzs3r1b2m71Wl5ervJCCUZAhSKPXwhAgCkY3wEIQKBwBCK7C2ZDamxslGm1ChEQKAECg4ODisIu/lNhCMJOs7zq7AJC+9DpE088IW/2IVUVFolgClYkHUEzIJBEAiSgJPY6MUOgSAg4mYIVSaw0AwKxJLBw4UK1O/utGJs3b9axpqYm6bgIRkBx6SnaCYESJEACKsFOJSQIxIUAU7C49BTtLHkCdotUexeru7tbsbe0tEh7IvuuWOBgDAxGQDHoJJoIgVIlQAIq1Z4lLgjEgABTsBh0Ek0sLQL2GazHH39cwb3wwgvS9lkue75OKBHBCKhEOpIwIBBHAiSgOPYabYZAiRAgAZVIRxIGBOJIgGtAcew12lz0BLJvjzc3N6vNW7duld64caP0/PnzpZMiGAElpaeJEwJFSIAEVISdQpMgkBQCTrZkTQpM4kw2gTt37ghA9gs4n3nmGR2rr6+XTrpgBJT0bwDxQ6CABEhABYSPawgknQBTsKR/A4g/NAL25YNWew6y74qF5jTmFTECinkH0nwIxJkACSjOvUfbIRBzAkzBYt6BNB8CcSbACCjOvUfbIRBzAiSgmHcgzYdAnAk4fxYs++6AfW/8wMCAWGafpwMICEREIPtOlX3LhN0uNSL3c67WPktWV1c35/pcVMAIyAVlfEAAArMSIAHNioVCCEDABYHIpmB2CnX58mXF8sYbb0h74vTp07Jv3boljYCAawKpVCrgMpPJyI7Dtqj2GbOdO3eq7QcPHpReunSpdHa8OuBQMAJyCBtXEIBAkAAJKMgDCwIQcEiABOQQNq4gAIEggchWQn/55Zfy1NPTI93X1yftCXutKHAAAwIQyJuAXVLQ1dWleo4fPy5tX/2jQseCEZBj4LiDAAR8AiQgnwUKAhBwTCDUKdiVK1fU/P3790ufO3dOel4qmPMqFqzQsdqW9dLl1WlpBARcEHgwMx1wM3l3WHb2MR0IUZSZZQBrV/grmZc1Ptpv4fPPP1drLl26JG3F888/L/PEiRPS9q0dKnQggtnAgUNcQAACEPiBAAnoBxL8CwEIOCcw55XQ9i6WXeX84YcfzhpM9bJ1gfK2bX+UnV7QKo2AQNIItLT4066//u4phd/RXCv9/4R9E8fhw4d1am9vr/T7778v/dZbb0kfPXpU2qVgBOSSNr4gAIEAARJQAAcGBCDgksCc74LZO1+bNm1S269fvy5d3uA/ALf6139RuSdqmpYHbAwIJJXAn3/7S4X+q6eWSecj7ILf7du3q4rhYf/O3vLl/m+vv79f53jC1X5CjIAC2DEgAAGXBEhALmnjCwIQCBDI6y6YvfN16tQpVTgyMiJtFxwu+Lm/+Km6scU/BwWBhBP4WWuDCGxZs1h6rmLNmjWq4uWXX5Z+9dVXpe1lkpMnT6rcE/YzgQMhG4yAQgZKdRCAwKMTIAE9OivOhAAEQiaQ1xRsYmJCzbALDqemplSeqqiSXvjYc9KprGfBdAABgYQQsFuhPrfOn3Y1pCtDI1BZ6de1d+9e1Wu347BbINsFit7J+/bt02eifCMIIyBhRkAAAq4JkIBcE8cfBCAgAnlNwe7evasKPvroI2krKha2y6xpnNuiKlWEgEAJEKiqLlcUG9oapcuCL+VQ+VxFZ2enqlixwt/+xk7B7MJF7+QbN27oM3bBogpDEoyAQgJJNRCAwE8nQAL66cz4BAQgEBIBElBIIKkGAhD46QTyugZ0//59eRoYGJC2IrOkw5poCEDgewIVlf41oLZFj7bXz1zg2dv+Tz75pKr69NNPpQcHB6U98c033wTsqAxGQFGRpV4IQCAnARJQTkScAAEIREUgrymYfYjNrn62jUybt13YcjQEkk6gosL/f7+lscYpjo6O2S+N2H2CvAaNjY05aZdPwok7nEAAAhDwCZCAfBYoCEDAMYG8pmB2JfSPtbcy46/w/LFzKIdAEgnYFxBWm+mYCxaLFi2a1U32pZTp6eBLGmf9UAiFjIBCgEgVEIBAfgRIQPlx41MQgEAIBEhAIUCkCghAID8CJKD8uPEpCEAgBAIkoBAgUgUEIJAfgbzugi1ZsiSnt8m7/gvQcp7MCRBIEIGZBw8U7fiUf7cpXeU/I6YTQhZDQ0Oz1lhbG3wmLcptWG0DGAFZGmgIQMApARKQU9w4gwAELIG8pmB2MVMmk1F9dpuOidvXVI6AAAR8At9+OyNj8O6kdPsi/7ekwpDFV199NWuN9jftnZBOp2c9L+xCRkBhE6U+CEDgkQmQgB4ZFSdCAAJhE8hrClZT428hsHLlSrXJ7qx/f/hfKkdAAAI+gf+aO1//HvJ3HoxqCjY+Pi7nn3zyibQVbW1t1pzX1NQUsKMyGAFFRZZ6IQCBnARIQDkRcQIEIBAVARJQVGSpFwIQyEkgr2tA9fX1qnjDhg3S9hrQ9Oh/VH5/ZEA6s7BNGgGBJBKw14D+cXlUCLatXSxdHuJrUnt7e1XvtWuzL49Zu3atzvFEY6Ob/bwYAQWwY0AAAi4JkIBc0sYXBCAQIJDXFKy6ulqV7NixQ/rtt9+Wnpj0V3iO/PMDlac3tUp7IlUW/QN4AYcYECgwgQfmYdTz/TfVmj9sa5duylRJ5yMmze/P/i7tdsrl5f5vb9euXQE3lZWVATsqgxFQVGSpFwIQyEmABJQTESdAAAJREUg9HA76m5Pk4WV01L+K39XVpRq++OIL6bJaf1Vle/efVO6JumXrAjYGBJJK4NhvfqHQezpXSOcjzp49q4/t2bNH2r7zfdWqVSrv7++X9gRTsAAODAhAoBQJMAUrxV4lJgjEhEBed8FsbPahtUOHDunQkSNHpCfH/GnalQ/+pnJPrOj6vezaxSulH94e8zUKAgkg8PfTfYqyzV/rO++xpfNVni1mZvy9heyCw2PHjulUO+2aP9+v65VXXtE5rqZccvi94FeeTQQbAhBwRoAE5Aw1jiAAgWwCc74LZiu8edNfVHXw4EEdOnnypHS2KEv7Y81K85xYqmzOs8NsV9gQiA2B9mb/LRWtTT++Pap9h/vHH3+s+OzdaRU+FC+99JLM119/XbqhoUHapWAE5JI2viAAgQABElAABwYEIOCSQKhTMNtwe+X9wIEDOvTee+9Je2JqaipgY0AAAnMnYO9q9fT0qMLXXntNOvtNGDrgUDACcggbVxCAQJAACSjIAwsCEHBIgATkEDauIACBIIHIrgFZNyMjIzKzrwHZW/Rff/21zpvjM7KqBwGBpBBob/f3E9q3b5/Ctg+jutpqVc5zCEZAOQBxGAIQiI4ACSg6ttQMAQjkIOBkCpajDRyGAAQSSoARUEI7nrAhUAwESEDF0Au0AQIJJUACSmjHEzYEioEACagYeoE2QCChBEhACe14woZAMRAgARVDL9AGCCSUAAkooR1P2BAoBgIkoGLoBdoAgYQSIAEltOMJGwLFQOB/XJMwAPSA7U0AAAAASUVORK5CYII=;" parent="1" vertex="1">
          <mxGeometry x="200" y="-1084.7200000000003" width="57.84" height="29.72" as="geometry" />
        </mxCell>
        <mxCell id="b9h8UNRZV26uDY9mIO9D-2" style="edgeStyle=orthogonalEdgeStyle;rounded=0;orthogonalLoop=1;jettySize=auto;html=1;dashed=1;fontColor=#000000;endArrow=block;endFill=1;" parent="1" source="pi-8fzJARmSawF2j8Gif-3" target="pi-8fzJARmSawF2j8Gif-2" edge="1">
          <mxGeometry relative="1" as="geometry" />
        </mxCell>
        <mxCell id="pi-8fzJARmSawF2j8Gif-3" value="Airline Order" style="rounded=0;whiteSpace=wrap;html=1;" parent="1" vertex="1">
          <mxGeometry x="30" y="-1099.8600000000001" width="120" height="60" as="geometry" />
        </mxCell>
        <mxCell id="b9h8UNRZV26uDY9mIO9D-55" style="edgeStyle=orthogonalEdgeStyle;rounded=0;orthogonalLoop=1;jettySize=auto;html=1;entryX=0;entryY=0;entryDx=110;entryDy=0;entryPerimeter=0;dashed=1;fontColor=#000000;endArrow=block;endFill=1;" parent="1" source="pi-8fzJARmSawF2j8Gif-12" target="b9h8UNRZV26uDY9mIO9D-36" edge="1">
          <mxGeometry relative="1" as="geometry" />
        </mxCell>
        <mxCell id="b9h8UNRZV26uDY9mIO9D-64" style="edgeStyle=orthogonalEdgeStyle;rounded=0;orthogonalLoop=1;jettySize=auto;html=1;entryX=1;entryY=0.379;entryDx=0;entryDy=0;entryPerimeter=0;dashed=1;fontColor=#000000;endArrow=block;endFill=1;" parent="1" source="pi-8fzJARmSawF2j8Gif-12" target="pi-8fzJARmSawF2j8Gif-98" edge="1">
          <mxGeometry relative="1" as="geometry">
            <Array as="points">
              <mxPoint x="840" y="-922" />
              <mxPoint x="840" y="-922" />
            </Array>
          </mxGeometry>
        </mxCell>
        <mxCell id="pi-8fzJARmSawF2j8Gif-12" value="[procurement_applied]" style="shape=image;verticalLabelPosition=bottom;labelBackgroundColor=default;verticalAlign=top;aspect=fixed;imageAspect=0;image=data:image/png,iVBORw0KGgoAAAANSUhEUgAAASAAAACUCAYAAAAzr/RXAAAMPmlDQ1BJQ0MgUHJvZmlsZQAASImVVwdYU8kWnluSkEBooUsJvQkiNYCUEFoA6UWwEZIAocQYCCp2ZFHBtaBiARu6KqLYAbEjioVFsfcFERVlXSzYlTcpoOu+8r2Tb+7988+Z/5w5d24ZANROcUSiHFQdgFxhvjg2JIA+LjmFTnoKEIABHfgjcbh5ImZ0dASANnT+u727Cb2hXXOQav2z/7+aBo+fxwUAiYY4jZfHzYX4EAB4FVckzgeAKOXNp+WLpBg2oCWGCUK8SIoz5LhKitPkeJ/MJz6WBXELAEoqHI44AwDVK5CnF3AzoIZqP8ROQp5ACIAaHWLf3NwpPIhTIbaBPiKIpfqMtB90Mv6mmTasyeFkDGP5XGSmFCjIE+VwZvyf5fjflpsjGYphBZtKpjg0VjpnWLfb2VPCpVgF4j5hWmQUxJoQfxDwZP4Qo5RMSWiC3B815OaxYM3gVQaoE48TGA6xIcTBwpzICAWfli4IZkMMVwg6XZDPjodYD+JF/LygOIXPZvGUWEUstD5dzGIq+PMcsSyuNNZDSXYCU6H/OpPPVuhjqoWZ8UkQUyC2KBAkRkKsCrFjXnZcuMJnTGEmK3LIRyyJleZvAXEsXxgSINfHCtLFwbEK/9LcvKH5YpszBexIBT6QnxkfKq8P1sLlyPKHc8Gu8IXMhCEdft64iKG58PiBQfK5Y8/4woQ4hc4HUX5ArHwsThHlRCv8cTN+ToiUN4PYNa8gTjEWT8yHC1Kuj6eL8qPj5XnihVmcsGh5PvhyEAFYIBDQgQS2NDAFZAFBe19DH/wn7wkGHCAGGYAPHBTM0IgkWY8QHuNAIfgTIj7IGx4XIOvlgwLIfx1m5UcHkC7rLZCNyAZPIM4F4SAH/pfIRgmHoyWCx5AR/CM6BzYuzDcHNmn/v+eH2O8MEzIRCkYyFJGuNuRJDCIGEkOJwURb3AD3xb3xCHj0h80ZZ+CeQ/P47k94QuggPCLcIHQS7kwWFIl/ynIs6IT6wYpapP1YC9wKarrhAbgPVIfKuA5uABxwVxiHifvByG6QZSnyllaF/pP232bww9VQ+JGdyChZl+xPtvl5pKqdqtuwirTWP9ZHnmvacL1Zwz0/x2f9UH0ePIf/7Iktwg5irdhp7AJ2DGsAdOwk1oi1YceleHh1PZatrqFosbJ8sqGO4B/xhq6stJJ5TrVOvU5f5H35/OnSZzRgTRHNEAsyMvPpTPhG4NPZQq7jSLqzk7MLANL3i/zx9SZG9t5AdNq+cwv+AMDn5ODg4NHvXNhJAPZ7wNv/yHfOhgFfHcoAnD/ClYgL5BwuPRDgU0IN3mn6wBiYAxs4H2fgDryBPwgCYSAKxINkMAlmnwnXuRhMA7PAfFACysBysBqsB5vAVrAT7AEHQAM4Bk6Dc+ASuAJugHtw9fSAF6AfvAOfEQQhIVSEhugjJoglYo84IwzEFwlCIpBYJBlJRTIQISJBZiELkDKkHFmPbEFqkP3IEeQ0cgHpQO4gXUgv8hr5hGKoCqqFGqFW6CiUgTLRcDQenYhmoFPRQrQYXYquRavR3Wg9ehq9hN5AO9EX6AAGMGVMBzPFHDAGxsKisBQsHRNjc7BSrAKrxuqwJnidr2GdWB/2ESfiNJyOO8AVHIon4Fx8Kj4HX4Kvx3fi9XgLfg3vwvvxbwQqwZBgT/AisAnjCBmEaYQSQgVhO+Ew4Sy8l3oI74hEog7RmugB78VkYhZxJnEJcQNxL/EUsYPYTRwgkUj6JHuSDymKxCHlk0pI60i7SSdJV0k9pA9KykomSs5KwUopSkKlIqUKpV1KJ5SuKj1V+kxWJ1uSvchRZB55BnkZeRu5iXyZ3EP+TNGgWFN8KPGULMp8ylpKHeUs5T7ljbKyspmyp3KMskB5nvJa5X3K55W7lD+qaKrYqbBUJqhIVJaq7FA5pXJH5Q2VSrWi+lNTqPnUpdQa6hnqQ+oHVZqqoypblac6V7VStV71qupLNbKapRpTbZJaoVqF2kG1y2p96mR1K3WWOkd9jnql+hH1W+oDGjSN0RpRGrkaSzR2aVzQeKZJ0rTSDNLkaRZrbtU8o9lNw2jmNBaNS1tA20Y7S+vRImpZa7G1srTKtPZotWv1a2tqu2onak/XrtQ+rt2pg+lY6bB1cnSW6RzQuanzSddIl6nL112sW6d7Vfe93gg9fz2+XqneXr0bep/06fpB+tn6K/Qb9B8Y4AZ2BjEG0ww2Gpw16BuhNcJ7BHdE6YgDI+4aooZ2hrGGMw23GrYZDhgZG4UYiYzWGZ0x6jPWMfY3zjJeZXzCuNeEZuJrIjBZZXLS5Dldm86k59DX0lvo/aaGpqGmEtMtpu2mn82szRLMisz2mj0wp5gzzNPNV5k3m/dbmFiMtZhlUWtx15JsybDMtFxj2Wr53sraKslqoVWD1TNrPWu2daF1rfV9G6qNn81Um2qb67ZEW4Zttu0G2yt2qJ2bXaZdpd1le9Te3V5gv8G+YyRhpOdI4cjqkbccVByYDgUOtQ5djjqOEY5Fjg2OL0dZjEoZtWJU66hvTm5OOU7bnO6N1hwdNrpodNPo1852zlznSufrLlSXYJe5Lo0ur1ztXfmuG11vu9HcxrotdGt2++ru4S52r3Pv9bDwSPWo8rjF0GJEM5YwznsSPAM853oe8/zo5e6V73XA6y9vB+9s713ez8ZYj+GP2Tam28fMh+OzxafTl+6b6rvZt9PP1I/jV+33yN/cn+e/3f8p05aZxdzNfBngFCAOOBzwnuXFms06FYgFhgSWBrYHaQYlBK0PehhsFpwRXBvcH+IWMjPkVCghNDx0RegtthGby65h94d5hM0OawlXCY8LXx/+KMIuQhzRNBYdGzZ25dj7kZaRwsiGKBDFjloZ9SDaOnpq9NEYYkx0TGXMk9jRsbNiW+NocZPjdsW9iw+IXxZ/L8EmQZLQnKiWOCGxJvF9UmBSeVLnuFHjZo+7lGyQLEhuTCGlJKZsTxkYHzR+9fieCW4TSibcnGg9cfrEC5MMJuVMOj5ZbTJn8sFUQmpS6q7UL5woTjVnII2dVpXWz2Vx13Bf8Px5q3i9fB9+Of9puk96efqzDJ+MlRm9mX6ZFZl9ApZgveBVVmjWpqz32VHZO7IHc5Jy9uYq5abmHhFqCrOFLVOMp0yf0iGyF5WIOqd6TV09tV8cLt6eh+RNzGvM14If8m0SG8kvkq4C34LKgg/TEqcdnK4xXTi9bYbdjMUznhYGF/42E5/Jndk8y3TW/Flds5mzt8xB5qTNaZ5rPrd4bs+8kHk751PmZ8//vcipqLzo7YKkBU3FRsXzirt/CfmltkS1RFxya6H3wk2L8EWCRe2LXRavW/ytlFd6scyprKLsyxLukou/jv517a+DS9OXti9zX7ZxOXG5cPnNFX4rdpZrlBeWd68cu7J+FX1V6aq3qyevvlDhWrFpDWWNZE3n2oi1jess1i1f92V95voblQGVe6sMqxZXvd/A23B1o//Guk1Gm8o2fdos2Hx7S8iW+mqr6oqtxK0FW59sS9zW+hvjt5rtBtvLtn/dIdzRuTN2Z0uNR03NLsNdy2rRWklt7+4Ju6/sCdzTWOdQt2Wvzt6yfWCfZN/z/an7bx4IP9B8kHGw7pDloarDtMOl9Uj9jPr+hsyGzsbkxo4jYUeam7ybDh91PLrjmOmxyuPax5edoJwoPjF4svDkwCnRqb7TGae7myc33zsz7sz1lpiW9rPhZ8+fCz53ppXZevK8z/ljF7wuHLnIuNhwyf1SfZtb2+Hf3X4/3O7eXn/Z43LjFc8rTR1jOk5c9bt6+lrgtXPX2dcv3Yi80XEz4ebtWxNudd7m3X52J+fOq7sFdz/fm3efcL/0gfqDioeGD6v/sP1jb6d75/GuwK62R3GP7nVzu188znv8paf4CfVJxVOTpzXPnJ8d6w3uvfJ8/POeF6IXn/tK/tT4s+qlzctDf/n/1dY/rr/nlfjV4Oslb/Tf7Hjr+rZ5IHrg4bvcd5/fl37Q/7DzI+Nj66ekT08/T/tC+rL2q+3Xpm/h3+4P5g4OijhijuxTAIMNTU8H4PUOAKjJANDg/owyXr7/kxki37PKEPhPWL5HlJk7AHXw+z2mD37d3AJg3za4/YL6ahMAiKYCEO8JUBeX4Ta0V5PtK6VGhPuAzZFf03LTwL8x+Z7zh7x/PgOpqiv4+fwvzpJ8P5CR8cwAAABsZVhJZk1NACoAAAAIAAQBGgAFAAAAAQAAAD4BGwAFAAAAAQAAAEYBKAADAAAAAQACAACHaQAEAAAAAQAAAE4AAAAAAAAAkAAAAAEAAACQAAAAAQACoAIABAAAAAEAAAEgoAMABAAAAAEAAACUAAAAAMy5k8AAAAAJcEhZcwAAFiUAABYlAUlSJPAAAA1QSURBVHgB7Z3bbxTXHcdZ33eNb9yMAas2mBAKTRMUHBRMJC4KiYH2BVmoImmRKvpAxQM8RPSt6h+QqHmplAoFKU+JIqTwgMRLiBCRDGmkJE6cpg1YoIJtMOYS40tjUyZKvvObldMl65mzOzsfv/D9nZk9v/P7nN0f58ycOZN68PBvHn8QgAAECkCgrAA+cQkBCEDgOwIkIL4IEIBAwQiQgAqGHscQgAAJiO8ABCBQMAIkoIKhxzEEIEAC4jsAAQgUjAAJqGDocQwBCJCA+A5AAAIFI1BRMM84hkCJEbh165YiOn/+vLQnnn76adnNzc3SZWXJHgMkO3p9DRAQgEAhCJCACkEdnxCAwHcEmILxRYBASASmpqZU07lz56Q9cfHiRdlbtmyR3rx5s3Qmk5FOimAElJSeJk4IFCEBElARdgpNgkBSCDAFS0pPE2dBCQwNDcn/u+++K93b2yvd3d0tvX79eumqqirpUhOMgEqtR4kHAjEiQAKKUWfRVAiUGgGmYKXWo8RT9ATsJqRXr15Ve0+cOCG9evVq6V27dkm3trZKe6KiIt4/YUZAge7EgAAEXBIgAbmkjS8IQCBAIN7jt0AoGBCIN4GJiQkF8Nlnn0kPDAxIP/vss9Ke2L59u+yGhgbpuAhGQHHpKdoJgRIkQAIqwU4lJAjEhQBTsLj0FO1MLIF79+4p9jNnzkh7wi5k3Llzp47Z7T/q6+tVXmyCEVCx9QjtgUCCCJCAEtTZhAqBYiOQcvFq5tu3byvuvr4+aU9MTk4GbAwIxJWAnSqdPXs2EMb4+HjAjsKorKxUte3t7dIvvviidEdHh3QxPGPGCEjdgYAABFwTIAG5Jo4/CEBABEhAQoGAAARcE4jsGtD09LRiefPNN6UvXLggjYAABKInYB9Y7ezslMMdO3ZIL1++XNqlYATkkja+IACBAAESUAAHBgQg4JJAZCuhU6mU4rC7/dfW1qrcE3ZvlMABDAjEjID9LtsHS70w7DHXYaXTabmsqamRrqurky6UYARUKPL4hQAE5pGA+BJAAAIFIxDZXTAbkV0JPTw8bA/Nm5mZCdgYEIgrgdHRUTX9nXfekfbE2NhYwI7CsO+ZX7VqlVzs3r1b2m71Wl5ervJCCUZAhSKPXwhAgCkY3wEIQKBwBCK7C2ZDamxslGm1ChEQKAECg4ODisIu/lNhCMJOs7zq7AJC+9DpE088IW/2IVUVFolgClYkHUEzIJBEAiSgJPY6MUOgSAg4mYIVSaw0AwKxJLBw4UK1O/utGJs3b9axpqYm6bgIRkBx6SnaCYESJEACKsFOJSQIxIUAU7C49BTtLHkCdotUexeru7tbsbe0tEh7IvuuWOBgDAxGQDHoJJoIgVIlQAIq1Z4lLgjEgABTsBh0Ek0sLQL2GazHH39cwb3wwgvS9lkue75OKBHBCKhEOpIwIBBHAiSgOPYabYZAiRAgAZVIRxIGBOJIgGtAcew12lz0BLJvjzc3N6vNW7duld64caP0/PnzpZMiGAElpaeJEwJFSIAEVISdQpMgkBQCTrZkTQpM4kw2gTt37ghA9gs4n3nmGR2rr6+XTrpgBJT0bwDxQ6CABEhABYSPawgknQBTsKR/A4g/NAL25YNWew6y74qF5jTmFTECinkH0nwIxJkACSjOvUfbIRBzAkzBYt6BNB8CcSbACCjOvUfbIRBzAiSgmHcgzYdAnAk4fxYs++6AfW/8wMCAWGafpwMICEREIPtOlX3LhN0uNSL3c67WPktWV1c35/pcVMAIyAVlfEAAArMSIAHNioVCCEDABYHIpmB2CnX58mXF8sYbb0h74vTp07Jv3boljYCAawKpVCrgMpPJyI7Dtqj2GbOdO3eq7QcPHpReunSpdHa8OuBQMAJyCBtXEIBAkAAJKMgDCwIQcEiABOQQNq4gAIEggchWQn/55Zfy1NPTI93X1yftCXutKHAAAwIQyJuAXVLQ1dWleo4fPy5tX/2jQseCEZBj4LiDAAR8AiQgnwUKAhBwTCDUKdiVK1fU/P3790ufO3dOel4qmPMqFqzQsdqW9dLl1WlpBARcEHgwMx1wM3l3WHb2MR0IUZSZZQBrV/grmZc1Ptpv4fPPP1drLl26JG3F888/L/PEiRPS9q0dKnQggtnAgUNcQAACEPiBAAnoBxL8CwEIOCcw55XQ9i6WXeX84YcfzhpM9bJ1gfK2bX+UnV7QKo2AQNIItLT4066//u4phd/RXCv9/4R9E8fhw4d1am9vr/T7778v/dZbb0kfPXpU2qVgBOSSNr4gAIEAARJQAAcGBCDgksCc74LZO1+bNm1S269fvy5d3uA/ALf6139RuSdqmpYHbAwIJJXAn3/7S4X+q6eWSecj7ILf7du3q4rhYf/O3vLl/m+vv79f53jC1X5CjIAC2DEgAAGXBEhALmnjCwIQCBDI6y6YvfN16tQpVTgyMiJtFxwu+Lm/+Km6scU/BwWBhBP4WWuDCGxZs1h6rmLNmjWq4uWXX5Z+9dVXpe1lkpMnT6rcE/YzgQMhG4yAQgZKdRCAwKMTIAE9OivOhAAEQiaQ1xRsYmJCzbALDqemplSeqqiSXvjYc9KprGfBdAABgYQQsFuhPrfOn3Y1pCtDI1BZ6de1d+9e1Wu347BbINsFit7J+/bt02eifCMIIyBhRkAAAq4JkIBcE8cfBCAgAnlNwe7evasKPvroI2krKha2y6xpnNuiKlWEgEAJEKiqLlcUG9oapcuCL+VQ+VxFZ2enqlixwt/+xk7B7MJF7+QbN27oM3bBogpDEoyAQgJJNRCAwE8nQAL66cz4BAQgEBIBElBIIKkGAhD46QTyugZ0//59eRoYGJC2IrOkw5poCEDgewIVlf41oLZFj7bXz1zg2dv+Tz75pKr69NNPpQcHB6U98c033wTsqAxGQFGRpV4IQCAnARJQTkScAAEIREUgrymYfYjNrn62jUybt13YcjQEkk6gosL/f7+lscYpjo6O2S+N2H2CvAaNjY05aZdPwok7nEAAAhDwCZCAfBYoCEDAMYG8pmB2JfSPtbcy46/w/LFzKIdAEgnYFxBWm+mYCxaLFi2a1U32pZTp6eBLGmf9UAiFjIBCgEgVEIBAfgRIQPlx41MQgEAIBEhAIUCkCghAID8CJKD8uPEpCEAgBAIkoBAgUgUEIJAfgbzugi1ZsiSnt8m7/gvQcp7MCRBIEIGZBw8U7fiUf7cpXeU/I6YTQhZDQ0Oz1lhbG3wmLcptWG0DGAFZGmgIQMApARKQU9w4gwAELIG8pmB2MVMmk1F9dpuOidvXVI6AAAR8At9+OyNj8O6kdPsi/7ekwpDFV199NWuN9jftnZBOp2c9L+xCRkBhE6U+CEDgkQmQgB4ZFSdCAAJhE8hrClZT428hsHLlSrXJ7qx/f/hfKkdAAAI+gf+aO1//HvJ3HoxqCjY+Pi7nn3zyibQVbW1t1pzX1NQUsKMyGAFFRZZ6IQCBnARIQDkRcQIEIBAVARJQVGSpFwIQyEkgr2tA9fX1qnjDhg3S9hrQ9Oh/VH5/ZEA6s7BNGgGBJBKw14D+cXlUCLatXSxdHuJrUnt7e1XvtWuzL49Zu3atzvFEY6Ob/bwYAQWwY0AAAi4JkIBc0sYXBCAQIJDXFKy6ulqV7NixQ/rtt9+Wnpj0V3iO/PMDlac3tUp7IlUW/QN4AYcYECgwgQfmYdTz/TfVmj9sa5duylRJ5yMmze/P/i7tdsrl5f5vb9euXQE3lZWVATsqgxFQVGSpFwIQyEmABJQTESdAAAJREUg9HA76m5Pk4WV01L+K39XVpRq++OIL6bJaf1Vle/efVO6JumXrAjYGBJJK4NhvfqHQezpXSOcjzp49q4/t2bNH2r7zfdWqVSrv7++X9gRTsAAODAhAoBQJMAUrxV4lJgjEhEBed8FsbPahtUOHDunQkSNHpCfH/GnalQ/+pnJPrOj6vezaxSulH94e8zUKAgkg8PfTfYqyzV/rO++xpfNVni1mZvy9heyCw2PHjulUO+2aP9+v65VXXtE5rqZccvi94FeeTQQbAhBwRoAE5Aw1jiAAgWwCc74LZiu8edNfVHXw4EEdOnnypHS2KEv7Y81K85xYqmzOs8NsV9gQiA2B9mb/LRWtTT++Pap9h/vHH3+s+OzdaRU+FC+99JLM119/XbqhoUHapWAE5JI2viAAgQABElAABwYEIOCSQKhTMNtwe+X9wIEDOvTee+9Je2JqaipgY0AAAnMnYO9q9fT0qMLXXntNOvtNGDrgUDACcggbVxCAQJAACSjIAwsCEHBIgATkEDauIACBIIHIrgFZNyMjIzKzrwHZW/Rff/21zpvjM7KqBwGBpBBob/f3E9q3b5/Ctg+jutpqVc5zCEZAOQBxGAIQiI4ACSg6ttQMAQjkIOBkCpajDRyGAAQSSoARUEI7nrAhUAwESEDF0Au0AQIJJUACSmjHEzYEioEACagYeoE2QCChBEhACe14woZAMRAgARVDL9AGCCSUAAkooR1P2BAoBgIkoGLoBdoAgYQSIAEltOMJGwLFQOB/XJMwAPSA7U0AAAAASUVORK5CYII=;" parent="1" vertex="1">
          <mxGeometry x="751.0799999999999" y="-945.2800000000003" width="57.84" height="29.72" as="geometry" />
        </mxCell>
        <mxCell id="pi-8fzJARmSawF2j8Gif-13" value="" style="group" parent="1" vertex="1" connectable="0">
          <mxGeometry x="640" y="-1139.72" width="230" height="140" as="geometry" />
        </mxCell>
        <mxCell id="pi-8fzJARmSawF2j8Gif-14" value="" style="shape=cube;whiteSpace=wrap;html=1;boundedLbl=1;backgroundOutline=1;darkOpacity=0.05;darkOpacity2=0.1;size=10;flipH=1;" parent="pi-8fzJARmSawF2j8Gif-13" vertex="1">
          <mxGeometry width="230" height="140" as="geometry" />
        </mxCell>
        <mxCell id="pi-8fzJARmSawF2j8Gif-19" value="component" style="rounded=1;whiteSpace=wrap;html=1;fontSize=14;" parent="pi-8fzJARmSawF2j8Gif-13" vertex="1">
          <mxGeometry x="10" y="88.5" width="90" height="30" as="geometry" />
        </mxCell>
        <mxCell id="pi-8fzJARmSawF2j8Gif-21" value="component" style="rounded=1;whiteSpace=wrap;html=1;fontSize=14;" parent="pi-8fzJARmSawF2j8Gif-13" vertex="1">
          <mxGeometry x="10" y="43.5" width="90" height="30" as="geometry" />
        </mxCell>
        <mxCell id="pi-8fzJARmSawF2j8Gif-22" value="component" style="rounded=1;whiteSpace=wrap;html=1;fontSize=14;" parent="pi-8fzJARmSawF2j8Gif-13" vertex="1">
          <mxGeometry x="120" y="43.5" width="90" height="30" as="geometry" />
        </mxCell>
        <mxCell id="pi-8fzJARmSawF2j8Gif-20" value="component" style="rounded=1;whiteSpace=wrap;html=1;fontSize=14;" parent="pi-8fzJARmSawF2j8Gif-13" vertex="1">
          <mxGeometry x="120" y="88.5" width="90" height="30" as="geometry" />
        </mxCell>
        <mxCell id="pi-8fzJARmSawF2j8Gif-84" value="Procurement" style="text;html=1;strokeColor=none;fillColor=none;align=center;verticalAlign=middle;whiteSpace=wrap;rounded=0;" parent="pi-8fzJARmSawF2j8Gif-13" vertex="1">
          <mxGeometry x="60" y="20.279999999999973" width="110" height="12.5" as="geometry" />
        </mxCell>
        <mxCell id="pi-8fzJARmSawF2j8Gif-117" style="edgeStyle=orthogonalEdgeStyle;rounded=0;orthogonalLoop=1;jettySize=auto;html=1;dashed=1;fontSize=14;" parent="1" edge="1">
          <mxGeometry relative="1" as="geometry">
            <mxPoint x="1005.5" y="-840.28" as="targetPoint" />
          </mxGeometry>
        </mxCell>
        <mxCell id="pi-8fzJARmSawF2j8Gif-40" value="" style="group" parent="1" vertex="1" connectable="0">
          <mxGeometry x="930" y="-750" width="230" height="140" as="geometry" />
        </mxCell>
        <mxCell id="pi-8fzJARmSawF2j8Gif-41" value="" style="shape=cube;whiteSpace=wrap;html=1;boundedLbl=1;backgroundOutline=1;darkOpacity=0.05;darkOpacity2=0.1;size=10;flipH=1;" parent="pi-8fzJARmSawF2j8Gif-40" vertex="1">
          <mxGeometry width="230" height="140" as="geometry" />
        </mxCell>
        <mxCell id="pi-8fzJARmSawF2j8Gif-42" value="component" style="rounded=1;whiteSpace=wrap;html=1;fontSize=14;" parent="pi-8fzJARmSawF2j8Gif-40" vertex="1">
          <mxGeometry x="10" y="88.5" width="90" height="30" as="geometry" />
        </mxCell>
        <mxCell id="pi-8fzJARmSawF2j8Gif-43" value="component" style="rounded=1;whiteSpace=wrap;html=1;fontSize=14;" parent="pi-8fzJARmSawF2j8Gif-40" vertex="1">
          <mxGeometry x="10" y="43.5" width="90" height="30" as="geometry" />
        </mxCell>
        <mxCell id="pi-8fzJARmSawF2j8Gif-44" value="component" style="rounded=1;whiteSpace=wrap;html=1;fontSize=14;" parent="pi-8fzJARmSawF2j8Gif-40" vertex="1">
          <mxGeometry x="120" y="43.5" width="90" height="30" as="geometry" />
        </mxCell>
        <mxCell id="pi-8fzJARmSawF2j8Gif-45" value="component" style="rounded=1;whiteSpace=wrap;html=1;fontSize=14;" parent="pi-8fzJARmSawF2j8Gif-40" vertex="1">
          <mxGeometry x="120" y="88.5" width="90" height="30" as="geometry" />
        </mxCell>
        <mxCell id="pi-8fzJARmSawF2j8Gif-46" value="Delivery" style="text;html=1;strokeColor=none;fillColor=none;align=center;verticalAlign=middle;whiteSpace=wrap;rounded=0;" parent="pi-8fzJARmSawF2j8Gif-40" vertex="1">
          <mxGeometry x="60" y="21.5" width="110" height="12.5" as="geometry" />
        </mxCell>
        <mxCell id="b9h8UNRZV26uDY9mIO9D-10" style="edgeStyle=orthogonalEdgeStyle;rounded=0;orthogonalLoop=1;jettySize=auto;html=1;dashed=1;fontColor=#000000;endArrow=block;endFill=1;" parent="1" source="pi-8fzJARmSawF2j8Gif-61" target="pi-8fzJARmSawF2j8Gif-14" edge="1">
          <mxGeometry relative="1" as="geometry" />
        </mxCell>
        <mxCell id="pi-8fzJARmSawF2j8Gif-62" value="" style="group" parent="1" vertex="1" connectable="0">
          <mxGeometry x="308.92" y="-1140" width="230" height="140.28" as="geometry" />
        </mxCell>
        <mxCell id="pi-8fzJARmSawF2j8Gif-63" value="" style="shape=cube;whiteSpace=wrap;html=1;boundedLbl=1;backgroundOutline=1;darkOpacity=0.05;darkOpacity2=0.1;size=10;flipH=1;" parent="pi-8fzJARmSawF2j8Gif-62" vertex="1">
          <mxGeometry width="230" height="140.28" as="geometry" />
        </mxCell>
        <mxCell id="pi-8fzJARmSawF2j8Gif-64" value="component" style="rounded=1;whiteSpace=wrap;html=1;fontSize=14;" parent="pi-8fzJARmSawF2j8Gif-62" vertex="1">
          <mxGeometry x="10" y="88.677" width="90" height="30.06" as="geometry" />
        </mxCell>
        <mxCell id="pi-8fzJARmSawF2j8Gif-65" value="component" style="rounded=1;whiteSpace=wrap;html=1;fontSize=14;" parent="pi-8fzJARmSawF2j8Gif-62" vertex="1">
          <mxGeometry x="10" y="43.587" width="90" height="30.06" as="geometry" />
        </mxCell>
        <mxCell id="pi-8fzJARmSawF2j8Gif-66" value="component" style="rounded=1;whiteSpace=wrap;html=1;fontSize=14;" parent="pi-8fzJARmSawF2j8Gif-62" vertex="1">
          <mxGeometry x="120" y="43.587" width="90" height="30.06" as="geometry" />
        </mxCell>
        <mxCell id="pi-8fzJARmSawF2j8Gif-67" value="component" style="rounded=1;whiteSpace=wrap;html=1;fontSize=14;" parent="pi-8fzJARmSawF2j8Gif-62" vertex="1">
          <mxGeometry x="120" y="88.677" width="90" height="30.06" as="geometry" />
        </mxCell>
        <mxCell id="pi-8fzJARmSawF2j8Gif-68" value="Order Placement" style="text;html=1;strokeColor=none;fillColor=none;align=center;verticalAlign=middle;whiteSpace=wrap;rounded=0;" parent="pi-8fzJARmSawF2j8Gif-62" vertex="1">
          <mxGeometry x="60" y="21.543" width="110" height="12.525" as="geometry" />
        </mxCell>
        <mxCell id="pi-8fzJARmSawF2j8Gif-96" value="[inventory_resupplied]" style="shape=image;verticalLabelPosition=bottom;labelBackgroundColor=default;verticalAlign=top;aspect=fixed;imageAspect=0;image=data:image/png,iVBORw0KGgoAAAANSUhEUgAAASAAAACUCAYAAAAzr/RXAAAMPmlDQ1BJQ0MgUHJvZmlsZQAASImVVwdYU8kWnluSkEBooUsJvQkiNYCUEFoA6UWwEZIAocQYCCp2ZFHBtaBiARu6KqLYAbEjioVFsfcFERVlXSzYlTcpoOu+8r2Tb+7988+Z/5w5d24ZANROcUSiHFQdgFxhvjg2JIA+LjmFTnoKEIABHfgjcbh5ImZ0dASANnT+u727Cb2hXXOQav2z/7+aBo+fxwUAiYY4jZfHzYX4EAB4FVckzgeAKOXNp+WLpBg2oCWGCUK8SIoz5LhKitPkeJ/MJz6WBXELAEoqHI44AwDVK5CnF3AzoIZqP8ROQp5ACIAaHWLf3NwpPIhTIbaBPiKIpfqMtB90Mv6mmTasyeFkDGP5XGSmFCjIE+VwZvyf5fjflpsjGYphBZtKpjg0VjpnWLfb2VPCpVgF4j5hWmQUxJoQfxDwZP4Qo5RMSWiC3B815OaxYM3gVQaoE48TGA6xIcTBwpzICAWfli4IZkMMVwg6XZDPjodYD+JF/LygOIXPZvGUWEUstD5dzGIq+PMcsSyuNNZDSXYCU6H/OpPPVuhjqoWZ8UkQUyC2KBAkRkKsCrFjXnZcuMJnTGEmK3LIRyyJleZvAXEsXxgSINfHCtLFwbEK/9LcvKH5YpszBexIBT6QnxkfKq8P1sLlyPKHc8Gu8IXMhCEdft64iKG58PiBQfK5Y8/4woQ4hc4HUX5ArHwsThHlRCv8cTN+ToiUN4PYNa8gTjEWT8yHC1Kuj6eL8qPj5XnihVmcsGh5PvhyEAFYIBDQgQS2NDAFZAFBe19DH/wn7wkGHCAGGYAPHBTM0IgkWY8QHuNAIfgTIj7IGx4XIOvlgwLIfx1m5UcHkC7rLZCNyAZPIM4F4SAH/pfIRgmHoyWCx5AR/CM6BzYuzDcHNmn/v+eH2O8MEzIRCkYyFJGuNuRJDCIGEkOJwURb3AD3xb3xCHj0h80ZZ+CeQ/P47k94QuggPCLcIHQS7kwWFIl/ynIs6IT6wYpapP1YC9wKarrhAbgPVIfKuA5uABxwVxiHifvByG6QZSnyllaF/pP232bww9VQ+JGdyChZl+xPtvl5pKqdqtuwirTWP9ZHnmvacL1Zwz0/x2f9UH0ePIf/7Iktwg5irdhp7AJ2DGsAdOwk1oi1YceleHh1PZatrqFosbJ8sqGO4B/xhq6stJJ5TrVOvU5f5H35/OnSZzRgTRHNEAsyMvPpTPhG4NPZQq7jSLqzk7MLANL3i/zx9SZG9t5AdNq+cwv+AMDn5ODg4NHvXNhJAPZ7wNv/yHfOhgFfHcoAnD/ClYgL5BwuPRDgU0IN3mn6wBiYAxs4H2fgDryBPwgCYSAKxINkMAlmnwnXuRhMA7PAfFACysBysBqsB5vAVrAT7AEHQAM4Bk6Dc+ASuAJugHtw9fSAF6AfvAOfEQQhIVSEhugjJoglYo84IwzEFwlCIpBYJBlJRTIQISJBZiELkDKkHFmPbEFqkP3IEeQ0cgHpQO4gXUgv8hr5hGKoCqqFGqFW6CiUgTLRcDQenYhmoFPRQrQYXYquRavR3Wg9ehq9hN5AO9EX6AAGMGVMBzPFHDAGxsKisBQsHRNjc7BSrAKrxuqwJnidr2GdWB/2ESfiNJyOO8AVHIon4Fx8Kj4HX4Kvx3fi9XgLfg3vwvvxbwQqwZBgT/AisAnjCBmEaYQSQgVhO+Ew4Sy8l3oI74hEog7RmugB78VkYhZxJnEJcQNxL/EUsYPYTRwgkUj6JHuSDymKxCHlk0pI60i7SSdJV0k9pA9KykomSs5KwUopSkKlIqUKpV1KJ5SuKj1V+kxWJ1uSvchRZB55BnkZeRu5iXyZ3EP+TNGgWFN8KPGULMp8ylpKHeUs5T7ljbKyspmyp3KMskB5nvJa5X3K55W7lD+qaKrYqbBUJqhIVJaq7FA5pXJH5Q2VSrWi+lNTqPnUpdQa6hnqQ+oHVZqqoypblac6V7VStV71qupLNbKapRpTbZJaoVqF2kG1y2p96mR1K3WWOkd9jnql+hH1W+oDGjSN0RpRGrkaSzR2aVzQeKZJ0rTSDNLkaRZrbtU8o9lNw2jmNBaNS1tA20Y7S+vRImpZa7G1srTKtPZotWv1a2tqu2onak/XrtQ+rt2pg+lY6bB1cnSW6RzQuanzSddIl6nL112sW6d7Vfe93gg9fz2+XqneXr0bep/06fpB+tn6K/Qb9B8Y4AZ2BjEG0ww2Gpw16BuhNcJ7BHdE6YgDI+4aooZ2hrGGMw23GrYZDhgZG4UYiYzWGZ0x6jPWMfY3zjJeZXzCuNeEZuJrIjBZZXLS5Dldm86k59DX0lvo/aaGpqGmEtMtpu2mn82szRLMisz2mj0wp5gzzNPNV5k3m/dbmFiMtZhlUWtx15JsybDMtFxj2Wr53sraKslqoVWD1TNrPWu2daF1rfV9G6qNn81Um2qb67ZEW4Zttu0G2yt2qJ2bXaZdpd1le9Te3V5gv8G+YyRhpOdI4cjqkbccVByYDgUOtQ5djjqOEY5Fjg2OL0dZjEoZtWJU66hvTm5OOU7bnO6N1hwdNrpodNPo1852zlznSufrLlSXYJe5Lo0ur1ztXfmuG11vu9HcxrotdGt2++ru4S52r3Pv9bDwSPWo8rjF0GJEM5YwznsSPAM853oe8/zo5e6V73XA6y9vB+9s713ez8ZYj+GP2Tam28fMh+OzxafTl+6b6rvZt9PP1I/jV+33yN/cn+e/3f8p05aZxdzNfBngFCAOOBzwnuXFms06FYgFhgSWBrYHaQYlBK0PehhsFpwRXBvcH+IWMjPkVCghNDx0RegtthGby65h94d5hM0OawlXCY8LXx/+KMIuQhzRNBYdGzZ25dj7kZaRwsiGKBDFjloZ9SDaOnpq9NEYYkx0TGXMk9jRsbNiW+NocZPjdsW9iw+IXxZ/L8EmQZLQnKiWOCGxJvF9UmBSeVLnuFHjZo+7lGyQLEhuTCGlJKZsTxkYHzR+9fieCW4TSibcnGg9cfrEC5MMJuVMOj5ZbTJn8sFUQmpS6q7UL5woTjVnII2dVpXWz2Vx13Bf8Px5q3i9fB9+Of9puk96efqzDJ+MlRm9mX6ZFZl9ApZgveBVVmjWpqz32VHZO7IHc5Jy9uYq5abmHhFqCrOFLVOMp0yf0iGyF5WIOqd6TV09tV8cLt6eh+RNzGvM14If8m0SG8kvkq4C34LKgg/TEqcdnK4xXTi9bYbdjMUznhYGF/42E5/Jndk8y3TW/Flds5mzt8xB5qTNaZ5rPrd4bs+8kHk751PmZ8//vcipqLzo7YKkBU3FRsXzirt/CfmltkS1RFxya6H3wk2L8EWCRe2LXRavW/ytlFd6scyprKLsyxLukou/jv517a+DS9OXti9zX7ZxOXG5cPnNFX4rdpZrlBeWd68cu7J+FX1V6aq3qyevvlDhWrFpDWWNZE3n2oi1jess1i1f92V95voblQGVe6sMqxZXvd/A23B1o//Guk1Gm8o2fdos2Hx7S8iW+mqr6oqtxK0FW59sS9zW+hvjt5rtBtvLtn/dIdzRuTN2Z0uNR03NLsNdy2rRWklt7+4Ju6/sCdzTWOdQt2Wvzt6yfWCfZN/z/an7bx4IP9B8kHGw7pDloarDtMOl9Uj9jPr+hsyGzsbkxo4jYUeam7ybDh91PLrjmOmxyuPax5edoJwoPjF4svDkwCnRqb7TGae7myc33zsz7sz1lpiW9rPhZ8+fCz53ppXZevK8z/ljF7wuHLnIuNhwyf1SfZtb2+Hf3X4/3O7eXn/Z43LjFc8rTR1jOk5c9bt6+lrgtXPX2dcv3Yi80XEz4ebtWxNudd7m3X52J+fOq7sFdz/fm3efcL/0gfqDioeGD6v/sP1jb6d75/GuwK62R3GP7nVzu188znv8paf4CfVJxVOTpzXPnJ8d6w3uvfJ8/POeF6IXn/tK/tT4s+qlzctDf/n/1dY/rr/nlfjV4Oslb/Tf7Hjr+rZ5IHrg4bvcd5/fl37Q/7DzI+Nj66ekT08/T/tC+rL2q+3Xpm/h3+4P5g4OijhijuxTAIMNTU8H4PUOAKjJANDg/owyXr7/kxki37PKEPhPWL5HlJk7AHXw+z2mD37d3AJg3za4/YL6ahMAiKYCEO8JUBeX4Ta0V5PtK6VGhPuAzZFf03LTwL8x+Z7zh7x/PgOpqiv4+fwvzpJ8P5CR8cwAAABsZVhJZk1NACoAAAAIAAQBGgAFAAAAAQAAAD4BGwAFAAAAAQAAAEYBKAADAAAAAQACAACHaQAEAAAAAQAAAE4AAAAAAAAAkAAAAAEAAACQAAAAAQACoAIABAAAAAEAAAEgoAMABAAAAAEAAACUAAAAAMy5k8AAAAAJcEhZcwAAFiUAABYlAUlSJPAAAA1QSURBVHgB7Z3bbxTXHcdZ33eNb9yMAas2mBAKTRMUHBRMJC4KiYH2BVmoImmRKvpAxQM8RPSt6h+QqHmplAoFKU+JIqTwgMRLiBCRDGmkJE6cpg1YoIJtMOYS40tjUyZKvvObldMl65mzOzsfv/D9nZk9v/P7nN0f58ycOZN68PBvHn8QgAAECkCgrAA+cQkBCEDgOwIkIL4IEIBAwQiQgAqGHscQgAAJiO8ABCBQMAIkoIKhxzEEIEAC4jsAAQgUjAAJqGDocQwBCJCA+A5AAAIFI1BRMM84hkCJEbh165YiOn/+vLQnnn76adnNzc3SZWXJHgMkO3p9DRAQgEAhCJCACkEdnxCAwHcEmILxRYBASASmpqZU07lz56Q9cfHiRdlbtmyR3rx5s3Qmk5FOimAElJSeJk4IFCEBElARdgpNgkBSCDAFS0pPE2dBCQwNDcn/u+++K93b2yvd3d0tvX79eumqqirpUhOMgEqtR4kHAjEiQAKKUWfRVAiUGgGmYKXWo8RT9ATsJqRXr15Ve0+cOCG9evVq6V27dkm3trZKe6KiIt4/YUZAge7EgAAEXBIgAbmkjS8IQCBAIN7jt0AoGBCIN4GJiQkF8Nlnn0kPDAxIP/vss9Ke2L59u+yGhgbpuAhGQHHpKdoJgRIkQAIqwU4lJAjEhQBTsLj0FO1MLIF79+4p9jNnzkh7wi5k3Llzp47Z7T/q6+tVXmyCEVCx9QjtgUCCCJCAEtTZhAqBYiOQcvFq5tu3byvuvr4+aU9MTk4GbAwIxJWAnSqdPXs2EMb4+HjAjsKorKxUte3t7dIvvviidEdHh3QxPGPGCEjdgYAABFwTIAG5Jo4/CEBABEhAQoGAAARcE4jsGtD09LRiefPNN6UvXLggjYAABKInYB9Y7ezslMMdO3ZIL1++XNqlYATkkja+IACBAAESUAAHBgQg4JJAZCuhU6mU4rC7/dfW1qrcE3ZvlMABDAjEjID9LtsHS70w7DHXYaXTabmsqamRrqurky6UYARUKPL4hQAE5pGA+BJAAAIFIxDZXTAbkV0JPTw8bA/Nm5mZCdgYEIgrgdHRUTX9nXfekfbE2NhYwI7CsO+ZX7VqlVzs3r1b2m71Wl5ervJCCUZAhSKPXwhAgCkY3wEIQKBwBCK7C2ZDamxslGm1ChEQKAECg4ODisIu/lNhCMJOs7zq7AJC+9DpE088IW/2IVUVFolgClYkHUEzIJBEAiSgJPY6MUOgSAg4mYIVSaw0AwKxJLBw4UK1O/utGJs3b9axpqYm6bgIRkBx6SnaCYESJEACKsFOJSQIxIUAU7C49BTtLHkCdotUexeru7tbsbe0tEh7IvuuWOBgDAxGQDHoJJoIgVIlQAIq1Z4lLgjEgABTsBh0Ek0sLQL2GazHH39cwb3wwgvS9lkue75OKBHBCKhEOpIwIBBHAiSgOPYabYZAiRAgAZVIRxIGBOJIgGtAcew12lz0BLJvjzc3N6vNW7duld64caP0/PnzpZMiGAElpaeJEwJFSIAEVISdQpMgkBQCTrZkTQpM4kw2gTt37ghA9gs4n3nmGR2rr6+XTrpgBJT0bwDxQ6CABEhABYSPawgknQBTsKR/A4g/NAL25YNWew6y74qF5jTmFTECinkH0nwIxJkACSjOvUfbIRBzAkzBYt6BNB8CcSbACCjOvUfbIRBzAiSgmHcgzYdAnAk4fxYs++6AfW/8wMCAWGafpwMICEREIPtOlX3LhN0uNSL3c67WPktWV1c35/pcVMAIyAVlfEAAArMSIAHNioVCCEDABYHIpmB2CnX58mXF8sYbb0h74vTp07Jv3boljYCAawKpVCrgMpPJyI7Dtqj2GbOdO3eq7QcPHpReunSpdHa8OuBQMAJyCBtXEIBAkAAJKMgDCwIQcEiABOQQNq4gAIEggchWQn/55Zfy1NPTI93X1yftCXutKHAAAwIQyJuAXVLQ1dWleo4fPy5tX/2jQseCEZBj4LiDAAR8AiQgnwUKAhBwTCDUKdiVK1fU/P3790ufO3dOel4qmPMqFqzQsdqW9dLl1WlpBARcEHgwMx1wM3l3WHb2MR0IUZSZZQBrV/grmZc1Ptpv4fPPP1drLl26JG3F888/L/PEiRPS9q0dKnQggtnAgUNcQAACEPiBAAnoBxL8CwEIOCcw55XQ9i6WXeX84YcfzhpM9bJ1gfK2bX+UnV7QKo2AQNIItLT4066//u4phd/RXCv9/4R9E8fhw4d1am9vr/T7778v/dZbb0kfPXpU2qVgBOSSNr4gAIEAARJQAAcGBCDgksCc74LZO1+bNm1S269fvy5d3uA/ALf6139RuSdqmpYHbAwIJJXAn3/7S4X+q6eWSecj7ILf7du3q4rhYf/O3vLl/m+vv79f53jC1X5CjIAC2DEgAAGXBEhALmnjCwIQCBDI6y6YvfN16tQpVTgyMiJtFxwu+Lm/+Km6scU/BwWBhBP4WWuDCGxZs1h6rmLNmjWq4uWXX5Z+9dVXpe1lkpMnT6rcE/YzgQMhG4yAQgZKdRCAwKMTIAE9OivOhAAEQiaQ1xRsYmJCzbALDqemplSeqqiSXvjYc9KprGfBdAABgYQQsFuhPrfOn3Y1pCtDI1BZ6de1d+9e1Wu347BbINsFit7J+/bt02eifCMIIyBhRkAAAq4JkIBcE8cfBCAgAnlNwe7evasKPvroI2krKha2y6xpnNuiKlWEgEAJEKiqLlcUG9oapcuCL+VQ+VxFZ2enqlixwt/+xk7B7MJF7+QbN27oM3bBogpDEoyAQgJJNRCAwE8nQAL66cz4BAQgEBIBElBIIKkGAhD46QTyugZ0//59eRoYGJC2IrOkw5poCEDgewIVlf41oLZFj7bXz1zg2dv+Tz75pKr69NNPpQcHB6U98c033wTsqAxGQFGRpV4IQCAnARJQTkScAAEIREUgrymYfYjNrn62jUybt13YcjQEkk6gosL/f7+lscYpjo6O2S+N2H2CvAaNjY05aZdPwok7nEAAAhDwCZCAfBYoCEDAMYG8pmB2JfSPtbcy46/w/LFzKIdAEgnYFxBWm+mYCxaLFi2a1U32pZTp6eBLGmf9UAiFjIBCgEgVEIBAfgRIQPlx41MQgEAIBEhAIUCkCghAID8CJKD8uPEpCEAgBAIkoBAgUgUEIJAfgbzugi1ZsiSnt8m7/gvQcp7MCRBIEIGZBw8U7fiUf7cpXeU/I6YTQhZDQ0Oz1lhbG3wmLcptWG0DGAFZGmgIQMApARKQU9w4gwAELIG8pmB2MVMmk1F9dpuOidvXVI6AAAR8At9+OyNj8O6kdPsi/7ekwpDFV199NWuN9jftnZBOp2c9L+xCRkBhE6U+CEDgkQmQgB4ZFSdCAAJhE8hrClZT428hsHLlSrXJ7qx/f/hfKkdAAAI+gf+aO1//HvJ3HoxqCjY+Pi7nn3zyibQVbW1t1pzX1NQUsKMyGAFFRZZ6IQCBnARIQDkRcQIEIBAVARJQVGSpFwIQyEkgr2tA9fX1qnjDhg3S9hrQ9Oh/VH5/ZEA6s7BNGgGBJBKw14D+cXlUCLatXSxdHuJrUnt7e1XvtWuzL49Zu3atzvFEY6Ob/bwYAQWwY0AAAi4JkIBc0sYXBCAQIJDXFKy6ulqV7NixQ/rtt9+Wnpj0V3iO/PMDlac3tUp7IlUW/QN4AYcYECgwgQfmYdTz/TfVmj9sa5duylRJ5yMmze/P/i7tdsrl5f5vb9euXQE3lZWVATsqgxFQVGSpFwIQyEmABJQTESdAAAJREUg9HA76m5Pk4WV01L+K39XVpRq++OIL6bJaf1Vle/efVO6JumXrAjYGBJJK4NhvfqHQezpXSOcjzp49q4/t2bNH2r7zfdWqVSrv7++X9gRTsAAODAhAoBQJMAUrxV4lJgjEhEBed8FsbPahtUOHDunQkSNHpCfH/GnalQ/+pnJPrOj6vezaxSulH94e8zUKAgkg8PfTfYqyzV/rO++xpfNVni1mZvy9heyCw2PHjulUO+2aP9+v65VXXtE5rqZccvi94FeeTQQbAhBwRoAE5Aw1jiAAgWwCc74LZiu8edNfVHXw4EEdOnnypHS2KEv7Y81K85xYqmzOs8NsV9gQiA2B9mb/LRWtTT++Pap9h/vHH3+s+OzdaRU+FC+99JLM119/XbqhoUHapWAE5JI2viAAgQABElAABwYEIOCSQKhTMNtwe+X9wIEDOvTee+9Je2JqaipgY0AAAnMnYO9q9fT0qMLXXntNOvtNGDrgUDACcggbVxCAQJAACSjIAwsCEHBIgATkEDauIACBIIHIrgFZNyMjIzKzrwHZW/Rff/21zpvjM7KqBwGBpBBob/f3E9q3b5/Ctg+jutpqVc5zCEZAOQBxGAIQiI4ACSg6ttQMAQjkIOBkCpajDRyGAAQSSoARUEI7nrAhUAwESEDF0Au0AQIJJUACSmjHEzYEioEACagYeoE2QCChBEhACe14woZAMRAgARVDL9AGCCSUAAkooR1P2BAoBgIkoGLoBdoAgYQSIAEltOMJGwLFQOB/XJMwAPSA7U0AAAAASUVORK5CYII=;" parent="1" vertex="1">
          <mxGeometry x="1212.0000000000002" y="-1084.72" width="57.84" height="29.72" as="geometry" />
        </mxCell>
        <mxCell id="pi-8fzJARmSawF2j8Gif-97" value="" style="group" parent="1" vertex="1" connectable="0">
          <mxGeometry x="900" y="-975" width="230" height="140" as="geometry" />
        </mxCell>
        <mxCell id="pi-8fzJARmSawF2j8Gif-98" value="" style="shape=cube;whiteSpace=wrap;html=1;boundedLbl=1;backgroundOutline=1;darkOpacity=0.05;darkOpacity2=0.1;size=10;flipH=1;" parent="pi-8fzJARmSawF2j8Gif-97" vertex="1">
          <mxGeometry width="230" height="140" as="geometry" />
        </mxCell>
        <mxCell id="pi-8fzJARmSawF2j8Gif-99" value="component" style="rounded=1;whiteSpace=wrap;html=1;fontSize=14;" parent="pi-8fzJARmSawF2j8Gif-97" vertex="1">
          <mxGeometry x="10" y="88.5" width="90" height="30" as="geometry" />
        </mxCell>
        <mxCell id="pi-8fzJARmSawF2j8Gif-100" value="component" style="rounded=1;whiteSpace=wrap;html=1;fontSize=14;" parent="pi-8fzJARmSawF2j8Gif-97" vertex="1">
          <mxGeometry x="10" y="43.5" width="90" height="30" as="geometry" />
        </mxCell>
        <mxCell id="pi-8fzJARmSawF2j8Gif-101" value="component" style="rounded=1;whiteSpace=wrap;html=1;fontSize=14;" parent="pi-8fzJARmSawF2j8Gif-97" vertex="1">
          <mxGeometry x="120" y="43.5" width="90" height="30" as="geometry" />
        </mxCell>
        <mxCell id="pi-8fzJARmSawF2j8Gif-102" value="component" style="rounded=1;whiteSpace=wrap;html=1;fontSize=14;" parent="pi-8fzJARmSawF2j8Gif-97" vertex="1">
          <mxGeometry x="120" y="88.5" width="90" height="30" as="geometry" />
        </mxCell>
        <mxCell id="pi-8fzJARmSawF2j8Gif-103" value="Production" style="text;html=1;strokeColor=none;fillColor=none;align=center;verticalAlign=middle;whiteSpace=wrap;rounded=0;" parent="pi-8fzJARmSawF2j8Gif-97" vertex="1">
          <mxGeometry x="60" y="21.5" width="110" height="12.5" as="geometry" />
        </mxCell>
        <mxCell id="b9h8UNRZV26uDY9mIO9D-84" style="edgeStyle=orthogonalEdgeStyle;rounded=0;orthogonalLoop=1;jettySize=auto;html=1;dashed=1;fontColor=#000000;endArrow=block;endFill=1;exitX=-0.004;exitY=0.878;exitDx=0;exitDy=0;exitPerimeter=0;entryX=0.5;entryY=0;entryDx=0;entryDy=0;" parent="1" source="pi-8fzJARmSawF2j8Gif-106" target="pi-8fzJARmSawF2j8Gif-104" edge="1">
          <mxGeometry relative="1" as="geometry">
            <mxPoint x="1290" y="-930" as="targetPoint" />
          </mxGeometry>
        </mxCell>
        <mxCell id="pi-8fzJARmSawF2j8Gif-104" value="[food_list_updated]" style="shape=image;verticalLabelPosition=bottom;labelBackgroundColor=default;verticalAlign=top;aspect=fixed;imageAspect=0;image=data:image/png,iVBORw0KGgoAAAANSUhEUgAAASAAAACUCAYAAAAzr/RXAAAMPmlDQ1BJQ0MgUHJvZmlsZQAASImVVwdYU8kWnluSkEBooUsJvQkiNYCUEFoA6UWwEZIAocQYCCp2ZFHBtaBiARu6KqLYAbEjioVFsfcFERVlXSzYlTcpoOu+8r2Tb+7988+Z/5w5d24ZANROcUSiHFQdgFxhvjg2JIA+LjmFTnoKEIABHfgjcbh5ImZ0dASANnT+u727Cb2hXXOQav2z/7+aBo+fxwUAiYY4jZfHzYX4EAB4FVckzgeAKOXNp+WLpBg2oCWGCUK8SIoz5LhKitPkeJ/MJz6WBXELAEoqHI44AwDVK5CnF3AzoIZqP8ROQp5ACIAaHWLf3NwpPIhTIbaBPiKIpfqMtB90Mv6mmTasyeFkDGP5XGSmFCjIE+VwZvyf5fjflpsjGYphBZtKpjg0VjpnWLfb2VPCpVgF4j5hWmQUxJoQfxDwZP4Qo5RMSWiC3B815OaxYM3gVQaoE48TGA6xIcTBwpzICAWfli4IZkMMVwg6XZDPjodYD+JF/LygOIXPZvGUWEUstD5dzGIq+PMcsSyuNNZDSXYCU6H/OpPPVuhjqoWZ8UkQUyC2KBAkRkKsCrFjXnZcuMJnTGEmK3LIRyyJleZvAXEsXxgSINfHCtLFwbEK/9LcvKH5YpszBexIBT6QnxkfKq8P1sLlyPKHc8Gu8IXMhCEdft64iKG58PiBQfK5Y8/4woQ4hc4HUX5ArHwsThHlRCv8cTN+ToiUN4PYNa8gTjEWT8yHC1Kuj6eL8qPj5XnihVmcsGh5PvhyEAFYIBDQgQS2NDAFZAFBe19DH/wn7wkGHCAGGYAPHBTM0IgkWY8QHuNAIfgTIj7IGx4XIOvlgwLIfx1m5UcHkC7rLZCNyAZPIM4F4SAH/pfIRgmHoyWCx5AR/CM6BzYuzDcHNmn/v+eH2O8MEzIRCkYyFJGuNuRJDCIGEkOJwURb3AD3xb3xCHj0h80ZZ+CeQ/P47k94QuggPCLcIHQS7kwWFIl/ynIs6IT6wYpapP1YC9wKarrhAbgPVIfKuA5uABxwVxiHifvByG6QZSnyllaF/pP232bww9VQ+JGdyChZl+xPtvl5pKqdqtuwirTWP9ZHnmvacL1Zwz0/x2f9UH0ePIf/7Iktwg5irdhp7AJ2DGsAdOwk1oi1YceleHh1PZatrqFosbJ8sqGO4B/xhq6stJJ5TrVOvU5f5H35/OnSZzRgTRHNEAsyMvPpTPhG4NPZQq7jSLqzk7MLANL3i/zx9SZG9t5AdNq+cwv+AMDn5ODg4NHvXNhJAPZ7wNv/yHfOhgFfHcoAnD/ClYgL5BwuPRDgU0IN3mn6wBiYAxs4H2fgDryBPwgCYSAKxINkMAlmnwnXuRhMA7PAfFACysBysBqsB5vAVrAT7AEHQAM4Bk6Dc+ASuAJugHtw9fSAF6AfvAOfEQQhIVSEhugjJoglYo84IwzEFwlCIpBYJBlJRTIQISJBZiELkDKkHFmPbEFqkP3IEeQ0cgHpQO4gXUgv8hr5hGKoCqqFGqFW6CiUgTLRcDQenYhmoFPRQrQYXYquRavR3Wg9ehq9hN5AO9EX6AAGMGVMBzPFHDAGxsKisBQsHRNjc7BSrAKrxuqwJnidr2GdWB/2ESfiNJyOO8AVHIon4Fx8Kj4HX4Kvx3fi9XgLfg3vwvvxbwQqwZBgT/AisAnjCBmEaYQSQgVhO+Ew4Sy8l3oI74hEog7RmugB78VkYhZxJnEJcQNxL/EUsYPYTRwgkUj6JHuSDymKxCHlk0pI60i7SSdJV0k9pA9KykomSs5KwUopSkKlIqUKpV1KJ5SuKj1V+kxWJ1uSvchRZB55BnkZeRu5iXyZ3EP+TNGgWFN8KPGULMp8ylpKHeUs5T7ljbKyspmyp3KMskB5nvJa5X3K55W7lD+qaKrYqbBUJqhIVJaq7FA5pXJH5Q2VSrWi+lNTqPnUpdQa6hnqQ+oHVZqqoypblac6V7VStV71qupLNbKapRpTbZJaoVqF2kG1y2p96mR1K3WWOkd9jnql+hH1W+oDGjSN0RpRGrkaSzR2aVzQeKZJ0rTSDNLkaRZrbtU8o9lNw2jmNBaNS1tA20Y7S+vRImpZa7G1srTKtPZotWv1a2tqu2onak/XrtQ+rt2pg+lY6bB1cnSW6RzQuanzSddIl6nL112sW6d7Vfe93gg9fz2+XqneXr0bep/06fpB+tn6K/Qb9B8Y4AZ2BjEG0ww2Gpw16BuhNcJ7BHdE6YgDI+4aooZ2hrGGMw23GrYZDhgZG4UYiYzWGZ0x6jPWMfY3zjJeZXzCuNeEZuJrIjBZZXLS5Dldm86k59DX0lvo/aaGpqGmEtMtpu2mn82szRLMisz2mj0wp5gzzNPNV5k3m/dbmFiMtZhlUWtx15JsybDMtFxj2Wr53sraKslqoVWD1TNrPWu2daF1rfV9G6qNn81Um2qb67ZEW4Zttu0G2yt2qJ2bXaZdpd1le9Te3V5gv8G+YyRhpOdI4cjqkbccVByYDgUOtQ5djjqOEY5Fjg2OL0dZjEoZtWJU66hvTm5OOU7bnO6N1hwdNrpodNPo1852zlznSufrLlSXYJe5Lo0ur1ztXfmuG11vu9HcxrotdGt2++ru4S52r3Pv9bDwSPWo8rjF0GJEM5YwznsSPAM853oe8/zo5e6V73XA6y9vB+9s713ez8ZYj+GP2Tam28fMh+OzxafTl+6b6rvZt9PP1I/jV+33yN/cn+e/3f8p05aZxdzNfBngFCAOOBzwnuXFms06FYgFhgSWBrYHaQYlBK0PehhsFpwRXBvcH+IWMjPkVCghNDx0RegtthGby65h94d5hM0OawlXCY8LXx/+KMIuQhzRNBYdGzZ25dj7kZaRwsiGKBDFjloZ9SDaOnpq9NEYYkx0TGXMk9jRsbNiW+NocZPjdsW9iw+IXxZ/L8EmQZLQnKiWOCGxJvF9UmBSeVLnuFHjZo+7lGyQLEhuTCGlJKZsTxkYHzR+9fieCW4TSibcnGg9cfrEC5MMJuVMOj5ZbTJn8sFUQmpS6q7UL5woTjVnII2dVpXWz2Vx13Bf8Px5q3i9fB9+Of9puk96efqzDJ+MlRm9mX6ZFZl9ApZgveBVVmjWpqz32VHZO7IHc5Jy9uYq5abmHhFqCrOFLVOMp0yf0iGyF5WIOqd6TV09tV8cLt6eh+RNzGvM14If8m0SG8kvkq4C34LKgg/TEqcdnK4xXTi9bYbdjMUznhYGF/42E5/Jndk8y3TW/Flds5mzt8xB5qTNaZ5rPrd4bs+8kHk751PmZ8//vcipqLzo7YKkBU3FRsXzirt/CfmltkS1RFxya6H3wk2L8EWCRe2LXRavW/ytlFd6scyprKLsyxLukou/jv517a+DS9OXti9zX7ZxOXG5cPnNFX4rdpZrlBeWd68cu7J+FX1V6aq3qyevvlDhWrFpDWWNZE3n2oi1jess1i1f92V95voblQGVe6sMqxZXvd/A23B1o//Guk1Gm8o2fdos2Hx7S8iW+mqr6oqtxK0FW59sS9zW+hvjt5rtBtvLtn/dIdzRuTN2Z0uNR03NLsNdy2rRWklt7+4Ju6/sCdzTWOdQt2Wvzt6yfWCfZN/z/an7bx4IP9B8kHGw7pDloarDtMOl9Uj9jPr+hsyGzsbkxo4jYUeam7ybDh91PLrjmOmxyuPax5edoJwoPjF4svDkwCnRqb7TGae7myc33zsz7sz1lpiW9rPhZ8+fCz53ppXZevK8z/ljF7wuHLnIuNhwyf1SfZtb2+Hf3X4/3O7eXn/Z43LjFc8rTR1jOk5c9bt6+lrgtXPX2dcv3Yi80XEz4ebtWxNudd7m3X52J+fOq7sFdz/fm3efcL/0gfqDioeGD6v/sP1jb6d75/GuwK62R3GP7nVzu188znv8paf4CfVJxVOTpzXPnJ8d6w3uvfJ8/POeF6IXn/tK/tT4s+qlzctDf/n/1dY/rr/nlfjV4Oslb/Tf7Hjr+rZ5IHrg4bvcd5/fl37Q/7DzI+Nj66ekT08/T/tC+rL2q+3Xpm/h3+4P5g4OijhijuxTAIMNTU8H4PUOAKjJANDg/owyXr7/kxki37PKEPhPWL5HlJk7AHXw+z2mD37d3AJg3za4/YL6ahMAiKYCEO8JUBeX4Ta0V5PtK6VGhPuAzZFf03LTwL8x+Z7zh7x/PgOpqiv4+fwvzpJ8P5CR8cwAAABsZVhJZk1NACoAAAAIAAQBGgAFAAAAAQAAAD4BGwAFAAAAAQAAAEYBKAADAAAAAQACAACHaQAEAAAAAQAAAE4AAAAAAAAAkAAAAAEAAACQAAAAAQACoAIABAAAAAEAAAEgoAMABAAAAAEAAACUAAAAAMy5k8AAAAAJcEhZcwAAFiUAABYlAUlSJPAAAA1QSURBVHgB7Z3bbxTXHcdZ33eNb9yMAas2mBAKTRMUHBRMJC4KiYH2BVmoImmRKvpAxQM8RPSt6h+QqHmplAoFKU+JIqTwgMRLiBCRDGmkJE6cpg1YoIJtMOYS40tjUyZKvvObldMl65mzOzsfv/D9nZk9v/P7nN0f58ycOZN68PBvHn8QgAAECkCgrAA+cQkBCEDgOwIkIL4IEIBAwQiQgAqGHscQgAAJiO8ABCBQMAIkoIKhxzEEIEAC4jsAAQgUjAAJqGDocQwBCJCA+A5AAAIFI1BRMM84hkCJEbh165YiOn/+vLQnnn76adnNzc3SZWXJHgMkO3p9DRAQgEAhCJCACkEdnxCAwHcEmILxRYBASASmpqZU07lz56Q9cfHiRdlbtmyR3rx5s3Qmk5FOimAElJSeJk4IFCEBElARdgpNgkBSCDAFS0pPE2dBCQwNDcn/u+++K93b2yvd3d0tvX79eumqqirpUhOMgEqtR4kHAjEiQAKKUWfRVAiUGgGmYKXWo8RT9ATsJqRXr15Ve0+cOCG9evVq6V27dkm3trZKe6KiIt4/YUZAge7EgAAEXBIgAbmkjS8IQCBAIN7jt0AoGBCIN4GJiQkF8Nlnn0kPDAxIP/vss9Ke2L59u+yGhgbpuAhGQHHpKdoJgRIkQAIqwU4lJAjEhQBTsLj0FO1MLIF79+4p9jNnzkh7wi5k3Llzp47Z7T/q6+tVXmyCEVCx9QjtgUCCCJCAEtTZhAqBYiOQcvFq5tu3byvuvr4+aU9MTk4GbAwIxJWAnSqdPXs2EMb4+HjAjsKorKxUte3t7dIvvviidEdHh3QxPGPGCEjdgYAABFwTIAG5Jo4/CEBABEhAQoGAAARcE4jsGtD09LRiefPNN6UvXLggjYAABKInYB9Y7ezslMMdO3ZIL1++XNqlYATkkja+IACBAAESUAAHBgQg4JJAZCuhU6mU4rC7/dfW1qrcE3ZvlMABDAjEjID9LtsHS70w7DHXYaXTabmsqamRrqurky6UYARUKPL4hQAE5pGA+BJAAAIFIxDZXTAbkV0JPTw8bA/Nm5mZCdgYEIgrgdHRUTX9nXfekfbE2NhYwI7CsO+ZX7VqlVzs3r1b2m71Wl5ervJCCUZAhSKPXwhAgCkY3wEIQKBwBCK7C2ZDamxslGm1ChEQKAECg4ODisIu/lNhCMJOs7zq7AJC+9DpE088IW/2IVUVFolgClYkHUEzIJBEAiSgJPY6MUOgSAg4mYIVSaw0AwKxJLBw4UK1O/utGJs3b9axpqYm6bgIRkBx6SnaCYESJEACKsFOJSQIxIUAU7C49BTtLHkCdotUexeru7tbsbe0tEh7IvuuWOBgDAxGQDHoJJoIgVIlQAIq1Z4lLgjEgABTsBh0Ek0sLQL2GazHH39cwb3wwgvS9lkue75OKBHBCKhEOpIwIBBHAiSgOPYabYZAiRAgAZVIRxIGBOJIgGtAcew12lz0BLJvjzc3N6vNW7duld64caP0/PnzpZMiGAElpaeJEwJFSIAEVISdQpMgkBQCTrZkTQpM4kw2gTt37ghA9gs4n3nmGR2rr6+XTrpgBJT0bwDxQ6CABEhABYSPawgknQBTsKR/A4g/NAL25YNWew6y74qF5jTmFTECinkH0nwIxJkACSjOvUfbIRBzAkzBYt6BNB8CcSbACCjOvUfbIRBzAiSgmHcgzYdAnAk4fxYs++6AfW/8wMCAWGafpwMICEREIPtOlX3LhN0uNSL3c67WPktWV1c35/pcVMAIyAVlfEAAArMSIAHNioVCCEDABYHIpmB2CnX58mXF8sYbb0h74vTp07Jv3boljYCAawKpVCrgMpPJyI7Dtqj2GbOdO3eq7QcPHpReunSpdHa8OuBQMAJyCBtXEIBAkAAJKMgDCwIQcEiABOQQNq4gAIEggchWQn/55Zfy1NPTI93X1yftCXutKHAAAwIQyJuAXVLQ1dWleo4fPy5tX/2jQseCEZBj4LiDAAR8AiQgnwUKAhBwTCDUKdiVK1fU/P3790ufO3dOel4qmPMqFqzQsdqW9dLl1WlpBARcEHgwMx1wM3l3WHb2MR0IUZSZZQBrV/grmZc1Ptpv4fPPP1drLl26JG3F888/L/PEiRPS9q0dKnQggtnAgUNcQAACEPiBAAnoBxL8CwEIOCcw55XQ9i6WXeX84YcfzhpM9bJ1gfK2bX+UnV7QKo2AQNIItLT4066//u4phd/RXCv9/4R9E8fhw4d1am9vr/T7778v/dZbb0kfPXpU2qVgBOSSNr4gAIEAARJQAAcGBCDgksCc74LZO1+bNm1S269fvy5d3uA/ALf6139RuSdqmpYHbAwIJJXAn3/7S4X+q6eWSecj7ILf7du3q4rhYf/O3vLl/m+vv79f53jC1X5CjIAC2DEgAAGXBEhALmnjCwIQCBDI6y6YvfN16tQpVTgyMiJtFxwu+Lm/+Km6scU/BwWBhBP4WWuDCGxZs1h6rmLNmjWq4uWXX5Z+9dVXpe1lkpMnT6rcE/YzgQMhG4yAQgZKdRCAwKMTIAE9OivOhAAEQiaQ1xRsYmJCzbALDqemplSeqqiSXvjYc9KprGfBdAABgYQQsFuhPrfOn3Y1pCtDI1BZ6de1d+9e1Wu347BbINsFit7J+/bt02eifCMIIyBhRkAAAq4JkIBcE8cfBCAgAnlNwe7evasKPvroI2krKha2y6xpnNuiKlWEgEAJEKiqLlcUG9oapcuCL+VQ+VxFZ2enqlixwt/+xk7B7MJF7+QbN27oM3bBogpDEoyAQgJJNRCAwE8nQAL66cz4BAQgEBIBElBIIKkGAhD46QTyugZ0//59eRoYGJC2IrOkw5poCEDgewIVlf41oLZFj7bXz1zg2dv+Tz75pKr69NNPpQcHB6U98c033wTsqAxGQFGRpV4IQCAnARJQTkScAAEIREUgrymYfYjNrn62jUybt13YcjQEkk6gosL/f7+lscYpjo6O2S+N2H2CvAaNjY05aZdPwok7nEAAAhDwCZCAfBYoCEDAMYG8pmB2JfSPtbcy46/w/LFzKIdAEgnYFxBWm+mYCxaLFi2a1U32pZTp6eBLGmf9UAiFjIBCgEgVEIBAfgRIQPlx41MQgEAIBEhAIUCkCghAID8CJKD8uPEpCEAgBAIkoBAgUgUEIJAfgbzugi1ZsiSnt8m7/gvQcp7MCRBIEIGZBw8U7fiUf7cpXeU/I6YTQhZDQ0Oz1lhbG3wmLcptWG0DGAFZGmgIQMApARKQU9w4gwAELIG8pmB2MVMmk1F9dpuOidvXVI6AAAR8At9+OyNj8O6kdPsi/7ekwpDFV199NWuN9jftnZBOp2c9L+xCRkBhE6U+CEDgkQmQgB4ZFSdCAAJhE8hrClZT428hsHLlSrXJ7qx/f/hfKkdAAAI+gf+aO1//HvJ3HoxqCjY+Pi7nn3zyibQVbW1t1pzX1NQUsKMyGAFFRZZ6IQCBnARIQDkRcQIEIBAVARJQVGSpFwIQyEkgr2tA9fX1qnjDhg3S9hrQ9Oh/VH5/ZEA6s7BNGgGBJBKw14D+cXlUCLatXSxdHuJrUnt7e1XvtWuzL49Zu3atzvFEY6Ob/bwYAQWwY0AAAi4JkIBc0sYXBCAQIJDXFKy6ulqV7NixQ/rtt9+Wnpj0V3iO/PMDlac3tUp7IlUW/QN4AYcYECgwgQfmYdTz/TfVmj9sa5duylRJ5yMmze/P/i7tdsrl5f5vb9euXQE3lZWVATsqgxFQVGSpFwIQyEmABJQTESdAAAJREUg9HA76m5Pk4WV01L+K39XVpRq++OIL6bJaf1Vle/efVO6JumXrAjYGBJJK4NhvfqHQezpXSOcjzp49q4/t2bNH2r7zfdWqVSrv7++X9gRTsAAODAhAoBQJMAUrxV4lJgjEhEBed8FsbPahtUOHDunQkSNHpCfH/GnalQ/+pnJPrOj6vezaxSulH94e8zUKAgkg8PfTfYqyzV/rO++xpfNVni1mZvy9heyCw2PHjulUO+2aP9+v65VXXtE5rqZccvi94FeeTQQbAhBwRoAE5Aw1jiAAgWwCc74LZiu8edNfVHXw4EEdOnnypHS2KEv7Y81K85xYqmzOs8NsV9gQiA2B9mb/LRWtTT++Pap9h/vHH3+s+OzdaRU+FC+99JLM119/XbqhoUHapWAE5JI2viAAgQABElAABwYEIOCSQKhTMNtwe+X9wIEDOvTee+9Je2JqaipgY0AAAnMnYO9q9fT0qMLXXntNOvtNGDrgUDACcggbVxCAQJAACSjIAwsCEHBIgATkEDauIACBIIHIrgFZNyMjIzKzrwHZW/Rff/21zpvjM7KqBwGBpBBob/f3E9q3b5/Ctg+jutpqVc5zCEZAOQBxGAIQiI4ACSg6ttQMAQjkIOBkCpajDRyGAAQSSoARUEI7nrAhUAwESEDF0Au0AQIJJUACSmjHEzYEioEACagYeoE2QCChBEhACe14woZAMRAgARVDL9AGCCSUAAkooR1P2BAoBgIkoGLoBdoAgYQSIAEltOMJGwLFQOB/XJMwAPSA7U0AAAAASUVORK5CYII=;" parent="1" vertex="1">
          <mxGeometry x="1170" y="-919.8600000000002" width="57.84" height="29.72" as="geometry" />
        </mxCell>
        <mxCell id="pi-8fzJARmSawF2j8Gif-105" value="" style="group" parent="1" vertex="1" connectable="0">
          <mxGeometry x="930" y="-1139.72" width="230" height="140" as="geometry" />
        </mxCell>
        <mxCell id="pi-8fzJARmSawF2j8Gif-106" value="" style="shape=cube;whiteSpace=wrap;html=1;boundedLbl=1;backgroundOutline=1;darkOpacity=0.05;darkOpacity2=0.1;size=10;flipH=1;" parent="pi-8fzJARmSawF2j8Gif-105" vertex="1">
          <mxGeometry width="230" height="140" as="geometry" />
        </mxCell>
        <mxCell id="pi-8fzJARmSawF2j8Gif-107" value="component" style="rounded=1;whiteSpace=wrap;html=1;fontSize=14;" parent="pi-8fzJARmSawF2j8Gif-105" vertex="1">
          <mxGeometry x="10" y="88.5" width="90" height="30" as="geometry" />
        </mxCell>
        <mxCell id="pi-8fzJARmSawF2j8Gif-108" value="component" style="rounded=1;whiteSpace=wrap;html=1;fontSize=14;" parent="pi-8fzJARmSawF2j8Gif-105" vertex="1">
          <mxGeometry x="10" y="43.5" width="90" height="30" as="geometry" />
        </mxCell>
        <mxCell id="pi-8fzJARmSawF2j8Gif-109" value="component" style="rounded=1;whiteSpace=wrap;html=1;fontSize=14;" parent="pi-8fzJARmSawF2j8Gif-105" vertex="1">
          <mxGeometry x="120" y="43.5" width="90" height="30" as="geometry" />
        </mxCell>
        <mxCell id="pi-8fzJARmSawF2j8Gif-110" value="component" style="rounded=1;whiteSpace=wrap;html=1;fontSize=14;" parent="pi-8fzJARmSawF2j8Gif-105" vertex="1">
          <mxGeometry x="120" y="88.5" width="90" height="30" as="geometry" />
        </mxCell>
        <mxCell id="pi-8fzJARmSawF2j8Gif-111" value="Warehouse" style="text;html=1;strokeColor=none;fillColor=none;align=center;verticalAlign=middle;whiteSpace=wrap;rounded=0;" parent="pi-8fzJARmSawF2j8Gif-105" vertex="1">
          <mxGeometry x="60" y="21.5" width="110" height="12.5" as="geometry" />
        </mxCell>
        <mxCell id="b9h8UNRZV26uDY9mIO9D-32" value="" style="group" parent="1" vertex="1" connectable="0">
          <mxGeometry x="300" y="-945.28" width="230" height="199.7199999999999" as="geometry" />
        </mxCell>
        <mxCell id="b9h8UNRZV26uDY9mIO9D-15" value="" style="group" parent="b9h8UNRZV26uDY9mIO9D-32" vertex="1" connectable="0">
          <mxGeometry width="230" height="140" as="geometry" />
        </mxCell>
        <mxCell id="b9h8UNRZV26uDY9mIO9D-16" value="" style="shape=cube;whiteSpace=wrap;html=1;boundedLbl=1;backgroundOutline=1;darkOpacity=0.05;darkOpacity2=0.1;size=10;flipH=1;" parent="b9h8UNRZV26uDY9mIO9D-15" vertex="1">
          <mxGeometry width="230" height="140" as="geometry" />
        </mxCell>
        <mxCell id="b9h8UNRZV26uDY9mIO9D-17" value="component" style="rounded=1;whiteSpace=wrap;html=1;fontSize=14;" parent="b9h8UNRZV26uDY9mIO9D-15" vertex="1">
          <mxGeometry x="10" y="88.5" width="90" height="30" as="geometry" />
        </mxCell>
        <mxCell id="b9h8UNRZV26uDY9mIO9D-18" value="component" style="rounded=1;whiteSpace=wrap;html=1;fontSize=14;" parent="b9h8UNRZV26uDY9mIO9D-15" vertex="1">
          <mxGeometry x="10" y="43.5" width="90" height="30" as="geometry" />
        </mxCell>
        <mxCell id="b9h8UNRZV26uDY9mIO9D-19" value="component" style="rounded=1;whiteSpace=wrap;html=1;fontSize=14;" parent="b9h8UNRZV26uDY9mIO9D-15" vertex="1">
          <mxGeometry x="120" y="43.5" width="90" height="30" as="geometry" />
        </mxCell>
        <mxCell id="b9h8UNRZV26uDY9mIO9D-20" value="component" style="rounded=1;whiteSpace=wrap;html=1;fontSize=14;" parent="b9h8UNRZV26uDY9mIO9D-15" vertex="1">
          <mxGeometry x="120" y="88.5" width="90" height="30" as="geometry" />
        </mxCell>
        <mxCell id="b9h8UNRZV26uDY9mIO9D-21" value="Notification" style="text;html=1;strokeColor=none;fillColor=none;align=center;verticalAlign=middle;whiteSpace=wrap;rounded=0;" parent="b9h8UNRZV26uDY9mIO9D-15" vertex="1">
          <mxGeometry x="60" y="20.279999999999973" width="110" height="12.5" as="geometry" />
        </mxCell>
        <mxCell id="b9h8UNRZV26uDY9mIO9D-22" value="[interface_remind]" style="shape=image;verticalLabelPosition=bottom;labelBackgroundColor=default;verticalAlign=top;aspect=fixed;imageAspect=0;image=data:image/png,iVBORw0KGgoAAAANSUhEUgAAASAAAACUCAYAAAAzr/RXAAAMPmlDQ1BJQ0MgUHJvZmlsZQAASImVVwdYU8kWnluSkEBooUsJvQkiNYCUEFoA6UWwEZIAocQYCCp2ZFHBtaBiARu6KqLYAbEjioVFsfcFERVlXSzYlTcpoOu+8r2Tb+7988+Z/5w5d24ZANROcUSiHFQdgFxhvjg2JIA+LjmFTnoKEIABHfgjcbh5ImZ0dASANnT+u727Cb2hXXOQav2z/7+aBo+fxwUAiYY4jZfHzYX4EAB4FVckzgeAKOXNp+WLpBg2oCWGCUK8SIoz5LhKitPkeJ/MJz6WBXELAEoqHI44AwDVK5CnF3AzoIZqP8ROQp5ACIAaHWLf3NwpPIhTIbaBPiKIpfqMtB90Mv6mmTasyeFkDGP5XGSmFCjIE+VwZvyf5fjflpsjGYphBZtKpjg0VjpnWLfb2VPCpVgF4j5hWmQUxJoQfxDwZP4Qo5RMSWiC3B815OaxYM3gVQaoE48TGA6xIcTBwpzICAWfli4IZkMMVwg6XZDPjodYD+JF/LygOIXPZvGUWEUstD5dzGIq+PMcsSyuNNZDSXYCU6H/OpPPVuhjqoWZ8UkQUyC2KBAkRkKsCrFjXnZcuMJnTGEmK3LIRyyJleZvAXEsXxgSINfHCtLFwbEK/9LcvKH5YpszBexIBT6QnxkfKq8P1sLlyPKHc8Gu8IXMhCEdft64iKG58PiBQfK5Y8/4woQ4hc4HUX5ArHwsThHlRCv8cTN+ToiUN4PYNa8gTjEWT8yHC1Kuj6eL8qPj5XnihVmcsGh5PvhyEAFYIBDQgQS2NDAFZAFBe19DH/wn7wkGHCAGGYAPHBTM0IgkWY8QHuNAIfgTIj7IGx4XIOvlgwLIfx1m5UcHkC7rLZCNyAZPIM4F4SAH/pfIRgmHoyWCx5AR/CM6BzYuzDcHNmn/v+eH2O8MEzIRCkYyFJGuNuRJDCIGEkOJwURb3AD3xb3xCHj0h80ZZ+CeQ/P47k94QuggPCLcIHQS7kwWFIl/ynIs6IT6wYpapP1YC9wKarrhAbgPVIfKuA5uABxwVxiHifvByG6QZSnyllaF/pP232bww9VQ+JGdyChZl+xPtvl5pKqdqtuwirTWP9ZHnmvacL1Zwz0/x2f9UH0ePIf/7Iktwg5irdhp7AJ2DGsAdOwk1oi1YceleHh1PZatrqFosbJ8sqGO4B/xhq6stJJ5TrVOvU5f5H35/OnSZzRgTRHNEAsyMvPpTPhG4NPZQq7jSLqzk7MLANL3i/zx9SZG9t5AdNq+cwv+AMDn5ODg4NHvXNhJAPZ7wNv/yHfOhgFfHcoAnD/ClYgL5BwuPRDgU0IN3mn6wBiYAxs4H2fgDryBPwgCYSAKxINkMAlmnwnXuRhMA7PAfFACysBysBqsB5vAVrAT7AEHQAM4Bk6Dc+ASuAJugHtw9fSAF6AfvAOfEQQhIVSEhugjJoglYo84IwzEFwlCIpBYJBlJRTIQISJBZiELkDKkHFmPbEFqkP3IEeQ0cgHpQO4gXUgv8hr5hGKoCqqFGqFW6CiUgTLRcDQenYhmoFPRQrQYXYquRavR3Wg9ehq9hN5AO9EX6AAGMGVMBzPFHDAGxsKisBQsHRNjc7BSrAKrxuqwJnidr2GdWB/2ESfiNJyOO8AVHIon4Fx8Kj4HX4Kvx3fi9XgLfg3vwvvxbwQqwZBgT/AisAnjCBmEaYQSQgVhO+Ew4Sy8l3oI74hEog7RmugB78VkYhZxJnEJcQNxL/EUsYPYTRwgkUj6JHuSDymKxCHlk0pI60i7SSdJV0k9pA9KykomSs5KwUopSkKlIqUKpV1KJ5SuKj1V+kxWJ1uSvchRZB55BnkZeRu5iXyZ3EP+TNGgWFN8KPGULMp8ylpKHeUs5T7ljbKyspmyp3KMskB5nvJa5X3K55W7lD+qaKrYqbBUJqhIVJaq7FA5pXJH5Q2VSrWi+lNTqPnUpdQa6hnqQ+oHVZqqoypblac6V7VStV71qupLNbKapRpTbZJaoVqF2kG1y2p96mR1K3WWOkd9jnql+hH1W+oDGjSN0RpRGrkaSzR2aVzQeKZJ0rTSDNLkaRZrbtU8o9lNw2jmNBaNS1tA20Y7S+vRImpZa7G1srTKtPZotWv1a2tqu2onak/XrtQ+rt2pg+lY6bB1cnSW6RzQuanzSddIl6nL112sW6d7Vfe93gg9fz2+XqneXr0bep/06fpB+tn6K/Qb9B8Y4AZ2BjEG0ww2Gpw16BuhNcJ7BHdE6YgDI+4aooZ2hrGGMw23GrYZDhgZG4UYiYzWGZ0x6jPWMfY3zjJeZXzCuNeEZuJrIjBZZXLS5Dldm86k59DX0lvo/aaGpqGmEtMtpu2mn82szRLMisz2mj0wp5gzzNPNV5k3m/dbmFiMtZhlUWtx15JsybDMtFxj2Wr53sraKslqoVWD1TNrPWu2daF1rfV9G6qNn81Um2qb67ZEW4Zttu0G2yt2qJ2bXaZdpd1le9Te3V5gv8G+YyRhpOdI4cjqkbccVByYDgUOtQ5djjqOEY5Fjg2OL0dZjEoZtWJU66hvTm5OOU7bnO6N1hwdNrpodNPo1852zlznSufrLlSXYJe5Lo0ur1ztXfmuG11vu9HcxrotdGt2++ru4S52r3Pv9bDwSPWo8rjF0GJEM5YwznsSPAM853oe8/zo5e6V73XA6y9vB+9s713ez8ZYj+GP2Tam28fMh+OzxafTl+6b6rvZt9PP1I/jV+33yN/cn+e/3f8p05aZxdzNfBngFCAOOBzwnuXFms06FYgFhgSWBrYHaQYlBK0PehhsFpwRXBvcH+IWMjPkVCghNDx0RegtthGby65h94d5hM0OawlXCY8LXx/+KMIuQhzRNBYdGzZ25dj7kZaRwsiGKBDFjloZ9SDaOnpq9NEYYkx0TGXMk9jRsbNiW+NocZPjdsW9iw+IXxZ/L8EmQZLQnKiWOCGxJvF9UmBSeVLnuFHjZo+7lGyQLEhuTCGlJKZsTxkYHzR+9fieCW4TSibcnGg9cfrEC5MMJuVMOj5ZbTJn8sFUQmpS6q7UL5woTjVnII2dVpXWz2Vx13Bf8Px5q3i9fB9+Of9puk96efqzDJ+MlRm9mX6ZFZl9ApZgveBVVmjWpqz32VHZO7IHc5Jy9uYq5abmHhFqCrOFLVOMp0yf0iGyF5WIOqd6TV09tV8cLt6eh+RNzGvM14If8m0SG8kvkq4C34LKgg/TEqcdnK4xXTi9bYbdjMUznhYGF/42E5/Jndk8y3TW/Flds5mzt8xB5qTNaZ5rPrd4bs+8kHk751PmZ8//vcipqLzo7YKkBU3FRsXzirt/CfmltkS1RFxya6H3wk2L8EWCRe2LXRavW/ytlFd6scyprKLsyxLukou/jv517a+DS9OXti9zX7ZxOXG5cPnNFX4rdpZrlBeWd68cu7J+FX1V6aq3qyevvlDhWrFpDWWNZE3n2oi1jess1i1f92V95voblQGVe6sMqxZXvd/A23B1o//Guk1Gm8o2fdos2Hx7S8iW+mqr6oqtxK0FW59sS9zW+hvjt5rtBtvLtn/dIdzRuTN2Z0uNR03NLsNdy2rRWklt7+4Ju6/sCdzTWOdQt2Wvzt6yfWCfZN/z/an7bx4IP9B8kHGw7pDloarDtMOl9Uj9jPr+hsyGzsbkxo4jYUeam7ybDh91PLrjmOmxyuPax5edoJwoPjF4svDkwCnRqb7TGae7myc33zsz7sz1lpiW9rPhZ8+fCz53ppXZevK8z/ljF7wuHLnIuNhwyf1SfZtb2+Hf3X4/3O7eXn/Z43LjFc8rTR1jOk5c9bt6+lrgtXPX2dcv3Yi80XEz4ebtWxNudd7m3X52J+fOq7sFdz/fm3efcL/0gfqDioeGD6v/sP1jb6d75/GuwK62R3GP7nVzu188znv8paf4CfVJxVOTpzXPnJ8d6w3uvfJ8/POeF6IXn/tK/tT4s+qlzctDf/n/1dY/rr/nlfjV4Oslb/Tf7Hjr+rZ5IHrg4bvcd5/fl37Q/7DzI+Nj66ekT08/T/tC+rL2q+3Xpm/h3+4P5g4OijhijuxTAIMNTU8H4PUOAKjJANDg/owyXr7/kxki37PKEPhPWL5HlJk7AHXw+z2mD37d3AJg3za4/YL6ahMAiKYCEO8JUBeX4Ta0V5PtK6VGhPuAzZFf03LTwL8x+Z7zh7x/PgOpqiv4+fwvzpJ8P5CR8cwAAABsZVhJZk1NACoAAAAIAAQBGgAFAAAAAQAAAD4BGwAFAAAAAQAAAEYBKAADAAAAAQACAACHaQAEAAAAAQAAAE4AAAAAAAAAkAAAAAEAAACQAAAAAQACoAIABAAAAAEAAAEgoAMABAAAAAEAAACUAAAAAMy5k8AAAAAJcEhZcwAAFiUAABYlAUlSJPAAAA1QSURBVHgB7Z3bbxTXHcdZ33eNb9yMAas2mBAKTRMUHBRMJC4KiYH2BVmoImmRKvpAxQM8RPSt6h+QqHmplAoFKU+JIqTwgMRLiBCRDGmkJE6cpg1YoIJtMOYS40tjUyZKvvObldMl65mzOzsfv/D9nZk9v/P7nN0f58ycOZN68PBvHn8QgAAECkCgrAA+cQkBCEDgOwIkIL4IEIBAwQiQgAqGHscQgAAJiO8ABCBQMAIkoIKhxzEEIEAC4jsAAQgUjAAJqGDocQwBCJCA+A5AAAIFI1BRMM84hkCJEbh165YiOn/+vLQnnn76adnNzc3SZWXJHgMkO3p9DRAQgEAhCJCACkEdnxCAwHcEmILxRYBASASmpqZU07lz56Q9cfHiRdlbtmyR3rx5s3Qmk5FOimAElJSeJk4IFCEBElARdgpNgkBSCDAFS0pPE2dBCQwNDcn/u+++K93b2yvd3d0tvX79eumqqirpUhOMgEqtR4kHAjEiQAKKUWfRVAiUGgGmYKXWo8RT9ATsJqRXr15Ve0+cOCG9evVq6V27dkm3trZKe6KiIt4/YUZAge7EgAAEXBIgAbmkjS8IQCBAIN7jt0AoGBCIN4GJiQkF8Nlnn0kPDAxIP/vss9Ke2L59u+yGhgbpuAhGQHHpKdoJgRIkQAIqwU4lJAjEhQBTsLj0FO1MLIF79+4p9jNnzkh7wi5k3Llzp47Z7T/q6+tVXmyCEVCx9QjtgUCCCJCAEtTZhAqBYiOQcvFq5tu3byvuvr4+aU9MTk4GbAwIxJWAnSqdPXs2EMb4+HjAjsKorKxUte3t7dIvvviidEdHh3QxPGPGCEjdgYAABFwTIAG5Jo4/CEBABEhAQoGAAARcE4jsGtD09LRiefPNN6UvXLggjYAABKInYB9Y7ezslMMdO3ZIL1++XNqlYATkkja+IACBAAESUAAHBgQg4JJAZCuhU6mU4rC7/dfW1qrcE3ZvlMABDAjEjID9LtsHS70w7DHXYaXTabmsqamRrqurky6UYARUKPL4hQAE5pGA+BJAAAIFIxDZXTAbkV0JPTw8bA/Nm5mZCdgYEIgrgdHRUTX9nXfekfbE2NhYwI7CsO+ZX7VqlVzs3r1b2m71Wl5ervJCCUZAhSKPXwhAgCkY3wEIQKBwBCK7C2ZDamxslGm1ChEQKAECg4ODisIu/lNhCMJOs7zq7AJC+9DpE088IW/2IVUVFolgClYkHUEzIJBEAiSgJPY6MUOgSAg4mYIVSaw0AwKxJLBw4UK1O/utGJs3b9axpqYm6bgIRkBx6SnaCYESJEACKsFOJSQIxIUAU7C49BTtLHkCdotUexeru7tbsbe0tEh7IvuuWOBgDAxGQDHoJJoIgVIlQAIq1Z4lLgjEgABTsBh0Ek0sLQL2GazHH39cwb3wwgvS9lkue75OKBHBCKhEOpIwIBBHAiSgOPYabYZAiRAgAZVIRxIGBOJIgGtAcew12lz0BLJvjzc3N6vNW7duld64caP0/PnzpZMiGAElpaeJEwJFSIAEVISdQpMgkBQCTrZkTQpM4kw2gTt37ghA9gs4n3nmGR2rr6+XTrpgBJT0bwDxQ6CABEhABYSPawgknQBTsKR/A4g/NAL25YNWew6y74qF5jTmFTECinkH0nwIxJkACSjOvUfbIRBzAkzBYt6BNB8CcSbACCjOvUfbIRBzAiSgmHcgzYdAnAk4fxYs++6AfW/8wMCAWGafpwMICEREIPtOlX3LhN0uNSL3c67WPktWV1c35/pcVMAIyAVlfEAAArMSIAHNioVCCEDABYHIpmB2CnX58mXF8sYbb0h74vTp07Jv3boljYCAawKpVCrgMpPJyI7Dtqj2GbOdO3eq7QcPHpReunSpdHa8OuBQMAJyCBtXEIBAkAAJKMgDCwIQcEiABOQQNq4gAIEggchWQn/55Zfy1NPTI93X1yftCXutKHAAAwIQyJuAXVLQ1dWleo4fPy5tX/2jQseCEZBj4LiDAAR8AiQgnwUKAhBwTCDUKdiVK1fU/P3790ufO3dOel4qmPMqFqzQsdqW9dLl1WlpBARcEHgwMx1wM3l3WHb2MR0IUZSZZQBrV/grmZc1Ptpv4fPPP1drLl26JG3F888/L/PEiRPS9q0dKnQggtnAgUNcQAACEPiBAAnoBxL8CwEIOCcw55XQ9i6WXeX84YcfzhpM9bJ1gfK2bX+UnV7QKo2AQNIItLT4066//u4phd/RXCv9/4R9E8fhw4d1am9vr/T7778v/dZbb0kfPXpU2qVgBOSSNr4gAIEAARJQAAcGBCDgksCc74LZO1+bNm1S269fvy5d3uA/ALf6139RuSdqmpYHbAwIJJXAn3/7S4X+q6eWSecj7ILf7du3q4rhYf/O3vLl/m+vv79f53jC1X5CjIAC2DEgAAGXBEhALmnjCwIQCBDI6y6YvfN16tQpVTgyMiJtFxwu+Lm/+Km6scU/BwWBhBP4WWuDCGxZs1h6rmLNmjWq4uWXX5Z+9dVXpe1lkpMnT6rcE/YzgQMhG4yAQgZKdRCAwKMTIAE9OivOhAAEQiaQ1xRsYmJCzbALDqemplSeqqiSXvjYc9KprGfBdAABgYQQsFuhPrfOn3Y1pCtDI1BZ6de1d+9e1Wu347BbINsFit7J+/bt02eifCMIIyBhRkAAAq4JkIBcE8cfBCAgAnlNwe7evasKPvroI2krKha2y6xpnNuiKlWEgEAJEKiqLlcUG9oapcuCL+VQ+VxFZ2enqlixwt/+xk7B7MJF7+QbN27oM3bBogpDEoyAQgJJNRCAwE8nQAL66cz4BAQgEBIBElBIIKkGAhD46QTyugZ0//59eRoYGJC2IrOkw5poCEDgewIVlf41oLZFj7bXz1zg2dv+Tz75pKr69NNPpQcHB6U98c033wTsqAxGQFGRpV4IQCAnARJQTkScAAEIREUgrymYfYjNrn62jUybt13YcjQEkk6gosL/f7+lscYpjo6O2S+N2H2CvAaNjY05aZdPwok7nEAAAhDwCZCAfBYoCEDAMYG8pmB2JfSPtbcy46/w/LFzKIdAEgnYFxBWm+mYCxaLFi2a1U32pZTp6eBLGmf9UAiFjIBCgEgVEIBAfgRIQPlx41MQgEAIBEhAIUCkCghAID8CJKD8uPEpCEAgBAIkoBAgUgUEIJAfgbzugi1ZsiSnt8m7/gvQcp7MCRBIEIGZBw8U7fiUf7cpXeU/I6YTQhZDQ0Oz1lhbG3wmLcptWG0DGAFZGmgIQMApARKQU9w4gwAELIG8pmB2MVMmk1F9dpuOidvXVI6AAAR8At9+OyNj8O6kdPsi/7ekwpDFV199NWuN9jftnZBOp2c9L+xCRkBhE6U+CEDgkQmQgB4ZFSdCAAJhE8hrClZT428hsHLlSrXJ7qx/f/hfKkdAAAI+gf+aO1//HvJ3HoxqCjY+Pi7nn3zyibQVbW1t1pzX1NQUsKMyGAFFRZZ6IQCBnARIQDkRcQIEIBAVARJQVGSpFwIQyEkgr2tA9fX1qnjDhg3S9hrQ9Oh/VH5/ZEA6s7BNGgGBJBKw14D+cXlUCLatXSxdHuJrUnt7e1XvtWuzL49Zu3atzvFEY6Ob/bwYAQWwY0AAAi4JkIBc0sYXBCAQIJDXFKy6ulqV7NixQ/rtt9+Wnpj0V3iO/PMDlac3tUp7IlUW/QN4AYcYECgwgQfmYdTz/TfVmj9sa5duylRJ5yMmze/P/i7tdsrl5f5vb9euXQE3lZWVATsqgxFQVGSpFwIQyEmABJQTESdAAAJREUg9HA76m5Pk4WV01L+K39XVpRq++OIL6bJaf1Vle/efVO6JumXrAjYGBJJK4NhvfqHQezpXSOcjzp49q4/t2bNH2r7zfdWqVSrv7++X9gRTsAAODAhAoBQJMAUrxV4lJgjEhEBed8FsbPahtUOHDunQkSNHpCfH/GnalQ/+pnJPrOj6vezaxSulH94e8zUKAgkg8PfTfYqyzV/rO++xpfNVni1mZvy9heyCw2PHjulUO+2aP9+v65VXXtE5rqZccvi94FeeTQQbAhBwRoAE5Aw1jiAAgWwCc74LZiu8edNfVHXw4EEdOnnypHS2KEv7Y81K85xYqmzOs8NsV9gQiA2B9mb/LRWtTT++Pap9h/vHH3+s+OzdaRU+FC+99JLM119/XbqhoUHapWAE5JI2viAAgQABElAABwYEIOCSQKhTMNtwe+X9wIEDOvTee+9Je2JqaipgY0AAAnMnYO9q9fT0qMLXXntNOvtNGDrgUDACcggbVxCAQJAACSjIAwsCEHBIgATkEDauIACBIIHIrgFZNyMjIzKzrwHZW/Rff/21zpvjM7KqBwGBpBBob/f3E9q3b5/Ctg+jutpqVc5zCEZAOQBxGAIQiI4ACSg6ttQMAQjkIOBkCpajDRyGAAQSSoARUEI7nrAhUAwESEDF0Au0AQIJJUACSmjHEzYEioEACagYeoE2QCChBEhACe14woZAMRAgARVDL9AGCCSUAAkooR1P2BAoBgIkoGLoBdoAgYQSIAEltOMJGwLFQOB/XJMwAPSA7U0AAAAASUVORK5CYII=;" parent="b9h8UNRZV26uDY9mIO9D-32" vertex="1">
          <mxGeometry x="86.08" y="169.9999999999999" width="57.84" height="29.72" as="geometry" />
        </mxCell>
        <mxCell id="b9h8UNRZV26uDY9mIO9D-23" value="" style="edgeStyle=orthogonalEdgeStyle;rounded=0;orthogonalLoop=1;jettySize=auto;html=1;dashed=1;fontColor=#000000;endArrow=block;endFill=1;" parent="b9h8UNRZV26uDY9mIO9D-32" source="b9h8UNRZV26uDY9mIO9D-16" target="b9h8UNRZV26uDY9mIO9D-22" edge="1">
          <mxGeometry relative="1" as="geometry" />
        </mxCell>
        <mxCell id="b9h8UNRZV26uDY9mIO9D-34" value="" style="group" parent="1" vertex="1" connectable="0">
          <mxGeometry x="660" y="-855" width="230" height="199.7199999999999" as="geometry" />
        </mxCell>
        <mxCell id="b9h8UNRZV26uDY9mIO9D-35" value="" style="group" parent="b9h8UNRZV26uDY9mIO9D-34" vertex="1" connectable="0">
          <mxGeometry width="230" height="140" as="geometry" />
        </mxCell>
        <mxCell id="b9h8UNRZV26uDY9mIO9D-36" value="" style="shape=cube;whiteSpace=wrap;html=1;boundedLbl=1;backgroundOutline=1;darkOpacity=0.05;darkOpacity2=0.1;size=10;flipH=1;" parent="b9h8UNRZV26uDY9mIO9D-35" vertex="1">
          <mxGeometry width="230" height="140" as="geometry" />
        </mxCell>
        <mxCell id="b9h8UNRZV26uDY9mIO9D-37" value="component" style="rounded=1;whiteSpace=wrap;html=1;fontSize=14;" parent="b9h8UNRZV26uDY9mIO9D-35" vertex="1">
          <mxGeometry x="10" y="88.5" width="90" height="30" as="geometry" />
        </mxCell>
        <mxCell id="b9h8UNRZV26uDY9mIO9D-38" value="component" style="rounded=1;whiteSpace=wrap;html=1;fontSize=14;" parent="b9h8UNRZV26uDY9mIO9D-35" vertex="1">
          <mxGeometry x="10" y="43.5" width="90" height="30" as="geometry" />
        </mxCell>
        <mxCell id="b9h8UNRZV26uDY9mIO9D-39" value="component" style="rounded=1;whiteSpace=wrap;html=1;fontSize=14;" parent="b9h8UNRZV26uDY9mIO9D-35" vertex="1">
          <mxGeometry x="120" y="43.5" width="90" height="30" as="geometry" />
        </mxCell>
        <mxCell id="b9h8UNRZV26uDY9mIO9D-40" value="component" style="rounded=1;whiteSpace=wrap;html=1;fontSize=14;" parent="b9h8UNRZV26uDY9mIO9D-35" vertex="1">
          <mxGeometry x="120" y="88.5" width="90" height="30" as="geometry" />
        </mxCell>
        <mxCell id="b9h8UNRZV26uDY9mIO9D-41" value="Order Fulfillment" style="text;html=1;strokeColor=none;fillColor=none;align=center;verticalAlign=middle;whiteSpace=wrap;rounded=0;" parent="b9h8UNRZV26uDY9mIO9D-35" vertex="1">
          <mxGeometry x="60" y="20.279999999999973" width="110" height="12.5" as="geometry" />
        </mxCell>
        <mxCell id="b9h8UNRZV26uDY9mIO9D-42" value="[order_fulfilled]" style="shape=image;verticalLabelPosition=bottom;labelBackgroundColor=default;verticalAlign=top;aspect=fixed;imageAspect=0;image=data:image/png,iVBORw0KGgoAAAANSUhEUgAAASAAAACUCAYAAAAzr/RXAAAMPmlDQ1BJQ0MgUHJvZmlsZQAASImVVwdYU8kWnluSkEBooUsJvQkiNYCUEFoA6UWwEZIAocQYCCp2ZFHBtaBiARu6KqLYAbEjioVFsfcFERVlXSzYlTcpoOu+8r2Tb+7988+Z/5w5d24ZANROcUSiHFQdgFxhvjg2JIA+LjmFTnoKEIABHfgjcbh5ImZ0dASANnT+u727Cb2hXXOQav2z/7+aBo+fxwUAiYY4jZfHzYX4EAB4FVckzgeAKOXNp+WLpBg2oCWGCUK8SIoz5LhKitPkeJ/MJz6WBXELAEoqHI44AwDVK5CnF3AzoIZqP8ROQp5ACIAaHWLf3NwpPIhTIbaBPiKIpfqMtB90Mv6mmTasyeFkDGP5XGSmFCjIE+VwZvyf5fjflpsjGYphBZtKpjg0VjpnWLfb2VPCpVgF4j5hWmQUxJoQfxDwZP4Qo5RMSWiC3B815OaxYM3gVQaoE48TGA6xIcTBwpzICAWfli4IZkMMVwg6XZDPjodYD+JF/LygOIXPZvGUWEUstD5dzGIq+PMcsSyuNNZDSXYCU6H/OpPPVuhjqoWZ8UkQUyC2KBAkRkKsCrFjXnZcuMJnTGEmK3LIRyyJleZvAXEsXxgSINfHCtLFwbEK/9LcvKH5YpszBexIBT6QnxkfKq8P1sLlyPKHc8Gu8IXMhCEdft64iKG58PiBQfK5Y8/4woQ4hc4HUX5ArHwsThHlRCv8cTN+ToiUN4PYNa8gTjEWT8yHC1Kuj6eL8qPj5XnihVmcsGh5PvhyEAFYIBDQgQS2NDAFZAFBe19DH/wn7wkGHCAGGYAPHBTM0IgkWY8QHuNAIfgTIj7IGx4XIOvlgwLIfx1m5UcHkC7rLZCNyAZPIM4F4SAH/pfIRgmHoyWCx5AR/CM6BzYuzDcHNmn/v+eH2O8MEzIRCkYyFJGuNuRJDCIGEkOJwURb3AD3xb3xCHj0h80ZZ+CeQ/P47k94QuggPCLcIHQS7kwWFIl/ynIs6IT6wYpapP1YC9wKarrhAbgPVIfKuA5uABxwVxiHifvByG6QZSnyllaF/pP232bww9VQ+JGdyChZl+xPtvl5pKqdqtuwirTWP9ZHnmvacL1Zwz0/x2f9UH0ePIf/7Iktwg5irdhp7AJ2DGsAdOwk1oi1YceleHh1PZatrqFosbJ8sqGO4B/xhq6stJJ5TrVOvU5f5H35/OnSZzRgTRHNEAsyMvPpTPhG4NPZQq7jSLqzk7MLANL3i/zx9SZG9t5AdNq+cwv+AMDn5ODg4NHvXNhJAPZ7wNv/yHfOhgFfHcoAnD/ClYgL5BwuPRDgU0IN3mn6wBiYAxs4H2fgDryBPwgCYSAKxINkMAlmnwnXuRhMA7PAfFACysBysBqsB5vAVrAT7AEHQAM4Bk6Dc+ASuAJugHtw9fSAF6AfvAOfEQQhIVSEhugjJoglYo84IwzEFwlCIpBYJBlJRTIQISJBZiELkDKkHFmPbEFqkP3IEeQ0cgHpQO4gXUgv8hr5hGKoCqqFGqFW6CiUgTLRcDQenYhmoFPRQrQYXYquRavR3Wg9ehq9hN5AO9EX6AAGMGVMBzPFHDAGxsKisBQsHRNjc7BSrAKrxuqwJnidr2GdWB/2ESfiNJyOO8AVHIon4Fx8Kj4HX4Kvx3fi9XgLfg3vwvvxbwQqwZBgT/AisAnjCBmEaYQSQgVhO+Ew4Sy8l3oI74hEog7RmugB78VkYhZxJnEJcQNxL/EUsYPYTRwgkUj6JHuSDymKxCHlk0pI60i7SSdJV0k9pA9KykomSs5KwUopSkKlIqUKpV1KJ5SuKj1V+kxWJ1uSvchRZB55BnkZeRu5iXyZ3EP+TNGgWFN8KPGULMp8ylpKHeUs5T7ljbKyspmyp3KMskB5nvJa5X3K55W7lD+qaKrYqbBUJqhIVJaq7FA5pXJH5Q2VSrWi+lNTqPnUpdQa6hnqQ+oHVZqqoypblac6V7VStV71qupLNbKapRpTbZJaoVqF2kG1y2p96mR1K3WWOkd9jnql+hH1W+oDGjSN0RpRGrkaSzR2aVzQeKZJ0rTSDNLkaRZrbtU8o9lNw2jmNBaNS1tA20Y7S+vRImpZa7G1srTKtPZotWv1a2tqu2onak/XrtQ+rt2pg+lY6bB1cnSW6RzQuanzSddIl6nL112sW6d7Vfe93gg9fz2+XqneXr0bep/06fpB+tn6K/Qb9B8Y4AZ2BjEG0ww2Gpw16BuhNcJ7BHdE6YgDI+4aooZ2hrGGMw23GrYZDhgZG4UYiYzWGZ0x6jPWMfY3zjJeZXzCuNeEZuJrIjBZZXLS5Dldm86k59DX0lvo/aaGpqGmEtMtpu2mn82szRLMisz2mj0wp5gzzNPNV5k3m/dbmFiMtZhlUWtx15JsybDMtFxj2Wr53sraKslqoVWD1TNrPWu2daF1rfV9G6qNn81Um2qb67ZEW4Zttu0G2yt2qJ2bXaZdpd1le9Te3V5gv8G+YyRhpOdI4cjqkbccVByYDgUOtQ5djjqOEY5Fjg2OL0dZjEoZtWJU66hvTm5OOU7bnO6N1hwdNrpodNPo1852zlznSufrLlSXYJe5Lo0ur1ztXfmuG11vu9HcxrotdGt2++ru4S52r3Pv9bDwSPWo8rjF0GJEM5YwznsSPAM853oe8/zo5e6V73XA6y9vB+9s713ez8ZYj+GP2Tam28fMh+OzxafTl+6b6rvZt9PP1I/jV+33yN/cn+e/3f8p05aZxdzNfBngFCAOOBzwnuXFms06FYgFhgSWBrYHaQYlBK0PehhsFpwRXBvcH+IWMjPkVCghNDx0RegtthGby65h94d5hM0OawlXCY8LXx/+KMIuQhzRNBYdGzZ25dj7kZaRwsiGKBDFjloZ9SDaOnpq9NEYYkx0TGXMk9jRsbNiW+NocZPjdsW9iw+IXxZ/L8EmQZLQnKiWOCGxJvF9UmBSeVLnuFHjZo+7lGyQLEhuTCGlJKZsTxkYHzR+9fieCW4TSibcnGg9cfrEC5MMJuVMOj5ZbTJn8sFUQmpS6q7UL5woTjVnII2dVpXWz2Vx13Bf8Px5q3i9fB9+Of9puk96efqzDJ+MlRm9mX6ZFZl9ApZgveBVVmjWpqz32VHZO7IHc5Jy9uYq5abmHhFqCrOFLVOMp0yf0iGyF5WIOqd6TV09tV8cLt6eh+RNzGvM14If8m0SG8kvkq4C34LKgg/TEqcdnK4xXTi9bYbdjMUznhYGF/42E5/Jndk8y3TW/Flds5mzt8xB5qTNaZ5rPrd4bs+8kHk751PmZ8//vcipqLzo7YKkBU3FRsXzirt/CfmltkS1RFxya6H3wk2L8EWCRe2LXRavW/ytlFd6scyprKLsyxLukou/jv517a+DS9OXti9zX7ZxOXG5cPnNFX4rdpZrlBeWd68cu7J+FX1V6aq3qyevvlDhWrFpDWWNZE3n2oi1jess1i1f92V95voblQGVe6sMqxZXvd/A23B1o//Guk1Gm8o2fdos2Hx7S8iW+mqr6oqtxK0FW59sS9zW+hvjt5rtBtvLtn/dIdzRuTN2Z0uNR03NLsNdy2rRWklt7+4Ju6/sCdzTWOdQt2Wvzt6yfWCfZN/z/an7bx4IP9B8kHGw7pDloarDtMOl9Uj9jPr+hsyGzsbkxo4jYUeam7ybDh91PLrjmOmxyuPax5edoJwoPjF4svDkwCnRqb7TGae7myc33zsz7sz1lpiW9rPhZ8+fCz53ppXZevK8z/ljF7wuHLnIuNhwyf1SfZtb2+Hf3X4/3O7eXn/Z43LjFc8rTR1jOk5c9bt6+lrgtXPX2dcv3Yi80XEz4ebtWxNudd7m3X52J+fOq7sFdz/fm3efcL/0gfqDioeGD6v/sP1jb6d75/GuwK62R3GP7nVzu188znv8paf4CfVJxVOTpzXPnJ8d6w3uvfJ8/POeF6IXn/tK/tT4s+qlzctDf/n/1dY/rr/nlfjV4Oslb/Tf7Hjr+rZ5IHrg4bvcd5/fl37Q/7DzI+Nj66ekT08/T/tC+rL2q+3Xpm/h3+4P5g4OijhijuxTAIMNTU8H4PUOAKjJANDg/owyXr7/kxki37PKEPhPWL5HlJk7AHXw+z2mD37d3AJg3za4/YL6ahMAiKYCEO8JUBeX4Ta0V5PtK6VGhPuAzZFf03LTwL8x+Z7zh7x/PgOpqiv4+fwvzpJ8P5CR8cwAAABsZVhJZk1NACoAAAAIAAQBGgAFAAAAAQAAAD4BGwAFAAAAAQAAAEYBKAADAAAAAQACAACHaQAEAAAAAQAAAE4AAAAAAAAAkAAAAAEAAACQAAAAAQACoAIABAAAAAEAAAEgoAMABAAAAAEAAACUAAAAAMy5k8AAAAAJcEhZcwAAFiUAABYlAUlSJPAAAA1QSURBVHgB7Z3bbxTXHcdZ33eNb9yMAas2mBAKTRMUHBRMJC4KiYH2BVmoImmRKvpAxQM8RPSt6h+QqHmplAoFKU+JIqTwgMRLiBCRDGmkJE6cpg1YoIJtMOYS40tjUyZKvvObldMl65mzOzsfv/D9nZk9v/P7nN0f58ycOZN68PBvHn8QgAAECkCgrAA+cQkBCEDgOwIkIL4IEIBAwQiQgAqGHscQgAAJiO8ABCBQMAIkoIKhxzEEIEAC4jsAAQgUjAAJqGDocQwBCJCA+A5AAAIFI1BRMM84hkCJEbh165YiOn/+vLQnnn76adnNzc3SZWXJHgMkO3p9DRAQgEAhCJCACkEdnxCAwHcEmILxRYBASASmpqZU07lz56Q9cfHiRdlbtmyR3rx5s3Qmk5FOimAElJSeJk4IFCEBElARdgpNgkBSCDAFS0pPE2dBCQwNDcn/u+++K93b2yvd3d0tvX79eumqqirpUhOMgEqtR4kHAjEiQAKKUWfRVAiUGgGmYKXWo8RT9ATsJqRXr15Ve0+cOCG9evVq6V27dkm3trZKe6KiIt4/YUZAge7EgAAEXBIgAbmkjS8IQCBAIN7jt0AoGBCIN4GJiQkF8Nlnn0kPDAxIP/vss9Ke2L59u+yGhgbpuAhGQHHpKdoJgRIkQAIqwU4lJAjEhQBTsLj0FO1MLIF79+4p9jNnzkh7wi5k3Llzp47Z7T/q6+tVXmyCEVCx9QjtgUCCCJCAEtTZhAqBYiOQcvFq5tu3byvuvr4+aU9MTk4GbAwIxJWAnSqdPXs2EMb4+HjAjsKorKxUte3t7dIvvviidEdHh3QxPGPGCEjdgYAABFwTIAG5Jo4/CEBABEhAQoGAAARcE4jsGtD09LRiefPNN6UvXLggjYAABKInYB9Y7ezslMMdO3ZIL1++XNqlYATkkja+IACBAAESUAAHBgQg4JJAZCuhU6mU4rC7/dfW1qrcE3ZvlMABDAjEjID9LtsHS70w7DHXYaXTabmsqamRrqurky6UYARUKPL4hQAE5pGA+BJAAAIFIxDZXTAbkV0JPTw8bA/Nm5mZCdgYEIgrgdHRUTX9nXfekfbE2NhYwI7CsO+ZX7VqlVzs3r1b2m71Wl5ervJCCUZAhSKPXwhAgCkY3wEIQKBwBCK7C2ZDamxslGm1ChEQKAECg4ODisIu/lNhCMJOs7zq7AJC+9DpE088IW/2IVUVFolgClYkHUEzIJBEAiSgJPY6MUOgSAg4mYIVSaw0AwKxJLBw4UK1O/utGJs3b9axpqYm6bgIRkBx6SnaCYESJEACKsFOJSQIxIUAU7C49BTtLHkCdotUexeru7tbsbe0tEh7IvuuWOBgDAxGQDHoJJoIgVIlQAIq1Z4lLgjEgABTsBh0Ek0sLQL2GazHH39cwb3wwgvS9lkue75OKBHBCKhEOpIwIBBHAiSgOPYabYZAiRAgAZVIRxIGBOJIgGtAcew12lz0BLJvjzc3N6vNW7duld64caP0/PnzpZMiGAElpaeJEwJFSIAEVISdQpMgkBQCTrZkTQpM4kw2gTt37ghA9gs4n3nmGR2rr6+XTrpgBJT0bwDxQ6CABEhABYSPawgknQBTsKR/A4g/NAL25YNWew6y74qF5jTmFTECinkH0nwIxJkACSjOvUfbIRBzAkzBYt6BNB8CcSbACCjOvUfbIRBzAiSgmHcgzYdAnAk4fxYs++6AfW/8wMCAWGafpwMICEREIPtOlX3LhN0uNSL3c67WPktWV1c35/pcVMAIyAVlfEAAArMSIAHNioVCCEDABYHIpmB2CnX58mXF8sYbb0h74vTp07Jv3boljYCAawKpVCrgMpPJyI7Dtqj2GbOdO3eq7QcPHpReunSpdHa8OuBQMAJyCBtXEIBAkAAJKMgDCwIQcEiABOQQNq4gAIEggchWQn/55Zfy1NPTI93X1yftCXutKHAAAwIQyJuAXVLQ1dWleo4fPy5tX/2jQseCEZBj4LiDAAR8AiQgnwUKAhBwTCDUKdiVK1fU/P3790ufO3dOel4qmPMqFqzQsdqW9dLl1WlpBARcEHgwMx1wM3l3WHb2MR0IUZSZZQBrV/grmZc1Ptpv4fPPP1drLl26JG3F888/L/PEiRPS9q0dKnQggtnAgUNcQAACEPiBAAnoBxL8CwEIOCcw55XQ9i6WXeX84YcfzhpM9bJ1gfK2bX+UnV7QKo2AQNIItLT4066//u4phd/RXCv9/4R9E8fhw4d1am9vr/T7778v/dZbb0kfPXpU2qVgBOSSNr4gAIEAARJQAAcGBCDgksCc74LZO1+bNm1S269fvy5d3uA/ALf6139RuSdqmpYHbAwIJJXAn3/7S4X+q6eWSecj7ILf7du3q4rhYf/O3vLl/m+vv79f53jC1X5CjIAC2DEgAAGXBEhALmnjCwIQCBDI6y6YvfN16tQpVTgyMiJtFxwu+Lm/+Km6scU/BwWBhBP4WWuDCGxZs1h6rmLNmjWq4uWXX5Z+9dVXpe1lkpMnT6rcE/YzgQMhG4yAQgZKdRCAwKMTIAE9OivOhAAEQiaQ1xRsYmJCzbALDqemplSeqqiSXvjYc9KprGfBdAABgYQQsFuhPrfOn3Y1pCtDI1BZ6de1d+9e1Wu347BbINsFit7J+/bt02eifCMIIyBhRkAAAq4JkIBcE8cfBCAgAnlNwe7evasKPvroI2krKha2y6xpnNuiKlWEgEAJEKiqLlcUG9oapcuCL+VQ+VxFZ2enqlixwt/+xk7B7MJF7+QbN27oM3bBogpDEoyAQgJJNRCAwE8nQAL66cz4BAQgEBIBElBIIKkGAhD46QTyugZ0//59eRoYGJC2IrOkw5poCEDgewIVlf41oLZFj7bXz1zg2dv+Tz75pKr69NNPpQcHB6U98c033wTsqAxGQFGRpV4IQCAnARJQTkScAAEIREUgrymYfYjNrn62jUybt13YcjQEkk6gosL/f7+lscYpjo6O2S+N2H2CvAaNjY05aZdPwok7nEAAAhDwCZCAfBYoCEDAMYG8pmB2JfSPtbcy46/w/LFzKIdAEgnYFxBWm+mYCxaLFi2a1U32pZTp6eBLGmf9UAiFjIBCgEgVEIBAfgRIQPlx41MQgEAIBEhAIUCkCghAID8CJKD8uPEpCEAgBAIkoBAgUgUEIJAfgbzugi1ZsiSnt8m7/gvQcp7MCRBIEIGZBw8U7fiUf7cpXeU/I6YTQhZDQ0Oz1lhbG3wmLcptWG0DGAFZGmgIQMApARKQU9w4gwAELIG8pmB2MVMmk1F9dpuOidvXVI6AAAR8At9+OyNj8O6kdPsi/7ekwpDFV199NWuN9jftnZBOp2c9L+xCRkBhE6U+CEDgkQmQgB4ZFSdCAAJhE8hrClZT428hsHLlSrXJ7qx/f/hfKkdAAAI+gf+aO1//HvJ3HoxqCjY+Pi7nn3zyibQVbW1t1pzX1NQUsKMyGAFFRZZ6IQCBnARIQDkRcQIEIBAVARJQVGSpFwIQyEkgr2tA9fX1qnjDhg3S9hrQ9Oh/VH5/ZEA6s7BNGgGBJBKw14D+cXlUCLatXSxdHuJrUnt7e1XvtWuzL49Zu3atzvFEY6Ob/bwYAQWwY0AAAi4JkIBc0sYXBCAQIJDXFKy6ulqV7NixQ/rtt9+Wnpj0V3iO/PMDlac3tUp7IlUW/QN4AYcYECgwgQfmYdTz/TfVmj9sa5duylRJ5yMmze/P/i7tdsrl5f5vb9euXQE3lZWVATsqgxFQVGSpFwIQyEmABJQTESdAAAJREUg9HA76m5Pk4WV01L+K39XVpRq++OIL6bJaf1Vle/efVO6JumXrAjYGBJJK4NhvfqHQezpXSOcjzp49q4/t2bNH2r7zfdWqVSrv7++X9gRTsAAODAhAoBQJMAUrxV4lJgjEhEBed8FsbPahtUOHDunQkSNHpCfH/GnalQ/+pnJPrOj6vezaxSulH94e8zUKAgkg8PfTfYqyzV/rO++xpfNVni1mZvy9heyCw2PHjulUO+2aP9+v65VXXtE5rqZccvi94FeeTQQbAhBwRoAE5Aw1jiAAgWwCc74LZiu8edNfVHXw4EEdOnnypHS2KEv7Y81K85xYqmzOs8NsV9gQiA2B9mb/LRWtTT++Pap9h/vHH3+s+OzdaRU+FC+99JLM119/XbqhoUHapWAE5JI2viAAgQABElAABwYEIOCSQKhTMNtwe+X9wIEDOvTee+9Je2JqaipgY0AAAnMnYO9q9fT0qMLXXntNOvtNGDrgUDACcggbVxCAQJAACSjIAwsCEHBIgATkEDauIACBIIHIrgFZNyMjIzKzrwHZW/Rff/21zpvjM7KqBwGBpBBob/f3E9q3b5/Ctg+jutpqVc5zCEZAOQBxGAIQiI4ACSg6ttQMAQjkIOBkCpajDRyGAAQSSoARUEI7nrAhUAwESEDF0Au0AQIJJUACSmjHEzYEioEACagYeoE2QCChBEhACe14woZAMRAgARVDL9AGCCSUAAkooR1P2BAoBgIkoGLoBdoAgYQSIAEltOMJGwLFQOB/XJMwAPSA7U0AAAAASUVORK5CYII=;" parent="b9h8UNRZV26uDY9mIO9D-34" vertex="1">
          <mxGeometry x="86.08" y="169.9999999999999" width="57.84" height="29.72" as="geometry" />
        </mxCell>
        <mxCell id="b9h8UNRZV26uDY9mIO9D-43" value="" style="edgeStyle=orthogonalEdgeStyle;rounded=0;orthogonalLoop=1;jettySize=auto;html=1;dashed=1;fontColor=#000000;endArrow=block;endFill=1;" parent="b9h8UNRZV26uDY9mIO9D-34" source="b9h8UNRZV26uDY9mIO9D-36" target="b9h8UNRZV26uDY9mIO9D-42" edge="1">
          <mxGeometry relative="1" as="geometry" />
        </mxCell>
        <mxCell id="b9h8UNRZV26uDY9mIO9D-56" style="edgeStyle=orthogonalEdgeStyle;rounded=0;orthogonalLoop=1;jettySize=auto;html=1;entryX=0;entryY=0.423;entryDx=0;entryDy=0;entryPerimeter=0;dashed=1;fontColor=#000000;endArrow=block;endFill=1;" parent="1" source="b9h8UNRZV26uDY9mIO9D-36" target="b9h8UNRZV26uDY9mIO9D-16" edge="1">
          <mxGeometry relative="1" as="geometry" />
        </mxCell>
        <mxCell id="b9h8UNRZV26uDY9mIO9D-58" style="edgeStyle=orthogonalEdgeStyle;rounded=0;orthogonalLoop=1;jettySize=auto;html=1;entryX=0;entryY=0.5;entryDx=0;entryDy=0;dashed=1;fontColor=#000000;endArrow=block;endFill=1;" parent="1" source="pi-8fzJARmSawF2j8Gif-98" target="pi-8fzJARmSawF2j8Gif-104" edge="1">
          <mxGeometry relative="1" as="geometry" />
        </mxCell>
        <mxCell id="b9h8UNRZV26uDY9mIO9D-60" style="edgeStyle=orthogonalEdgeStyle;rounded=0;orthogonalLoop=1;jettySize=auto;html=1;entryX=0;entryY=0.5;entryDx=0;entryDy=0;dashed=1;fontColor=#000000;endArrow=block;endFill=1;" parent="1" source="pi-8fzJARmSawF2j8Gif-106" target="pi-8fzJARmSawF2j8Gif-96" edge="1">
          <mxGeometry relative="1" as="geometry" />
        </mxCell>
        <mxCell id="b9h8UNRZV26uDY9mIO9D-68" style="edgeStyle=orthogonalEdgeStyle;rounded=0;orthogonalLoop=1;jettySize=auto;html=1;dashed=1;fontColor=#000000;endArrow=block;endFill=1;entryX=0;entryY=0;entryDx=230;entryDy=75;entryPerimeter=0;" parent="1" source="b9h8UNRZV26uDY9mIO9D-42" target="pi-8fzJARmSawF2j8Gif-41" edge="1">
          <mxGeometry relative="1" as="geometry">
            <mxPoint x="775" y="-580" as="targetPoint" />
          </mxGeometry>
        </mxCell>
        <mxCell id="b9h8UNRZV26uDY9mIO9D-85" style="edgeStyle=orthogonalEdgeStyle;rounded=0;orthogonalLoop=1;jettySize=auto;html=1;entryX=0.78;entryY=0.009;entryDx=0;entryDy=0;entryPerimeter=0;dashed=1;fontColor=#000000;endArrow=block;endFill=1;" parent="1" source="pi-8fzJARmSawF2j8Gif-61" target="b9h8UNRZV26uDY9mIO9D-16" edge="1">
          <mxGeometry relative="1" as="geometry">
            <Array as="points">
              <mxPoint x="570" y="-990" />
              <mxPoint x="351" y="-990" />
            </Array>
          </mxGeometry>
        </mxCell>
        <mxCell id="b9h8UNRZV26uDY9mIO9D-86" style="edgeStyle=orthogonalEdgeStyle;rounded=0;orthogonalLoop=1;jettySize=auto;html=1;dashed=1;fontColor=#000000;endArrow=block;endFill=1;exitX=0.75;exitY=1;exitDx=0;exitDy=0;" parent="1" source="pi-8fzJARmSawF2j8Gif-61" target="pi-8fzJARmSawF2j8Gif-98" edge="1">
          <mxGeometry relative="1" as="geometry">
            <mxPoint x="620" y="-990" as="sourcePoint" />
            <Array as="points">
              <mxPoint x="603" y="-990" />
              <mxPoint x="1015" y="-990" />
            </Array>
          </mxGeometry>
        </mxCell>
        <mxCell id="pi-8fzJARmSawF2j8Gif-61" value="[order_created]" style="shape=image;verticalLabelPosition=bottom;labelBackgroundColor=default;verticalAlign=top;aspect=fixed;imageAspect=0;image=data:image/png,iVBORw0KGgoAAAANSUhEUgAAASAAAACUCAYAAAAzr/RXAAAMPmlDQ1BJQ0MgUHJvZmlsZQAASImVVwdYU8kWnluSkEBooUsJvQkiNYCUEFoA6UWwEZIAocQYCCp2ZFHBtaBiARu6KqLYAbEjioVFsfcFERVlXSzYlTcpoOu+8r2Tb+7988+Z/5w5d24ZANROcUSiHFQdgFxhvjg2JIA+LjmFTnoKEIABHfgjcbh5ImZ0dASANnT+u727Cb2hXXOQav2z/7+aBo+fxwUAiYY4jZfHzYX4EAB4FVckzgeAKOXNp+WLpBg2oCWGCUK8SIoz5LhKitPkeJ/MJz6WBXELAEoqHI44AwDVK5CnF3AzoIZqP8ROQp5ACIAaHWLf3NwpPIhTIbaBPiKIpfqMtB90Mv6mmTasyeFkDGP5XGSmFCjIE+VwZvyf5fjflpsjGYphBZtKpjg0VjpnWLfb2VPCpVgF4j5hWmQUxJoQfxDwZP4Qo5RMSWiC3B815OaxYM3gVQaoE48TGA6xIcTBwpzICAWfli4IZkMMVwg6XZDPjodYD+JF/LygOIXPZvGUWEUstD5dzGIq+PMcsSyuNNZDSXYCU6H/OpPPVuhjqoWZ8UkQUyC2KBAkRkKsCrFjXnZcuMJnTGEmK3LIRyyJleZvAXEsXxgSINfHCtLFwbEK/9LcvKH5YpszBexIBT6QnxkfKq8P1sLlyPKHc8Gu8IXMhCEdft64iKG58PiBQfK5Y8/4woQ4hc4HUX5ArHwsThHlRCv8cTN+ToiUN4PYNa8gTjEWT8yHC1Kuj6eL8qPj5XnihVmcsGh5PvhyEAFYIBDQgQS2NDAFZAFBe19DH/wn7wkGHCAGGYAPHBTM0IgkWY8QHuNAIfgTIj7IGx4XIOvlgwLIfx1m5UcHkC7rLZCNyAZPIM4F4SAH/pfIRgmHoyWCx5AR/CM6BzYuzDcHNmn/v+eH2O8MEzIRCkYyFJGuNuRJDCIGEkOJwURb3AD3xb3xCHj0h80ZZ+CeQ/P47k94QuggPCLcIHQS7kwWFIl/ynIs6IT6wYpapP1YC9wKarrhAbgPVIfKuA5uABxwVxiHifvByG6QZSnyllaF/pP232bww9VQ+JGdyChZl+xPtvl5pKqdqtuwirTWP9ZHnmvacL1Zwz0/x2f9UH0ePIf/7Iktwg5irdhp7AJ2DGsAdOwk1oi1YceleHh1PZatrqFosbJ8sqGO4B/xhq6stJJ5TrVOvU5f5H35/OnSZzRgTRHNEAsyMvPpTPhG4NPZQq7jSLqzk7MLANL3i/zx9SZG9t5AdNq+cwv+AMDn5ODg4NHvXNhJAPZ7wNv/yHfOhgFfHcoAnD/ClYgL5BwuPRDgU0IN3mn6wBiYAxs4H2fgDryBPwgCYSAKxINkMAlmnwnXuRhMA7PAfFACysBysBqsB5vAVrAT7AEHQAM4Bk6Dc+ASuAJugHtw9fSAF6AfvAOfEQQhIVSEhugjJoglYo84IwzEFwlCIpBYJBlJRTIQISJBZiELkDKkHFmPbEFqkP3IEeQ0cgHpQO4gXUgv8hr5hGKoCqqFGqFW6CiUgTLRcDQenYhmoFPRQrQYXYquRavR3Wg9ehq9hN5AO9EX6AAGMGVMBzPFHDAGxsKisBQsHRNjc7BSrAKrxuqwJnidr2GdWB/2ESfiNJyOO8AVHIon4Fx8Kj4HX4Kvx3fi9XgLfg3vwvvxbwQqwZBgT/AisAnjCBmEaYQSQgVhO+Ew4Sy8l3oI74hEog7RmugB78VkYhZxJnEJcQNxL/EUsYPYTRwgkUj6JHuSDymKxCHlk0pI60i7SSdJV0k9pA9KykomSs5KwUopSkKlIqUKpV1KJ5SuKj1V+kxWJ1uSvchRZB55BnkZeRu5iXyZ3EP+TNGgWFN8KPGULMp8ylpKHeUs5T7ljbKyspmyp3KMskB5nvJa5X3K55W7lD+qaKrYqbBUJqhIVJaq7FA5pXJH5Q2VSrWi+lNTqPnUpdQa6hnqQ+oHVZqqoypblac6V7VStV71qupLNbKapRpTbZJaoVqF2kG1y2p96mR1K3WWOkd9jnql+hH1W+oDGjSN0RpRGrkaSzR2aVzQeKZJ0rTSDNLkaRZrbtU8o9lNw2jmNBaNS1tA20Y7S+vRImpZa7G1srTKtPZotWv1a2tqu2onak/XrtQ+rt2pg+lY6bB1cnSW6RzQuanzSddIl6nL112sW6d7Vfe93gg9fz2+XqneXr0bep/06fpB+tn6K/Qb9B8Y4AZ2BjEG0ww2Gpw16BuhNcJ7BHdE6YgDI+4aooZ2hrGGMw23GrYZDhgZG4UYiYzWGZ0x6jPWMfY3zjJeZXzCuNeEZuJrIjBZZXLS5Dldm86k59DX0lvo/aaGpqGmEtMtpu2mn82szRLMisz2mj0wp5gzzNPNV5k3m/dbmFiMtZhlUWtx15JsybDMtFxj2Wr53sraKslqoVWD1TNrPWu2daF1rfV9G6qNn81Um2qb67ZEW4Zttu0G2yt2qJ2bXaZdpd1le9Te3V5gv8G+YyRhpOdI4cjqkbccVByYDgUOtQ5djjqOEY5Fjg2OL0dZjEoZtWJU66hvTm5OOU7bnO6N1hwdNrpodNPo1852zlznSufrLlSXYJe5Lo0ur1ztXfmuG11vu9HcxrotdGt2++ru4S52r3Pv9bDwSPWo8rjF0GJEM5YwznsSPAM853oe8/zo5e6V73XA6y9vB+9s713ez8ZYj+GP2Tam28fMh+OzxafTl+6b6rvZt9PP1I/jV+33yN/cn+e/3f8p05aZxdzNfBngFCAOOBzwnuXFms06FYgFhgSWBrYHaQYlBK0PehhsFpwRXBvcH+IWMjPkVCghNDx0RegtthGby65h94d5hM0OawlXCY8LXx/+KMIuQhzRNBYdGzZ25dj7kZaRwsiGKBDFjloZ9SDaOnpq9NEYYkx0TGXMk9jRsbNiW+NocZPjdsW9iw+IXxZ/L8EmQZLQnKiWOCGxJvF9UmBSeVLnuFHjZo+7lGyQLEhuTCGlJKZsTxkYHzR+9fieCW4TSibcnGg9cfrEC5MMJuVMOj5ZbTJn8sFUQmpS6q7UL5woTjVnII2dVpXWz2Vx13Bf8Px5q3i9fB9+Of9puk96efqzDJ+MlRm9mX6ZFZl9ApZgveBVVmjWpqz32VHZO7IHc5Jy9uYq5abmHhFqCrOFLVOMp0yf0iGyF5WIOqd6TV09tV8cLt6eh+RNzGvM14If8m0SG8kvkq4C34LKgg/TEqcdnK4xXTi9bYbdjMUznhYGF/42E5/Jndk8y3TW/Flds5mzt8xB5qTNaZ5rPrd4bs+8kHk751PmZ8//vcipqLzo7YKkBU3FRsXzirt/CfmltkS1RFxya6H3wk2L8EWCRe2LXRavW/ytlFd6scyprKLsyxLukou/jv517a+DS9OXti9zX7ZxOXG5cPnNFX4rdpZrlBeWd68cu7J+FX1V6aq3qyevvlDhWrFpDWWNZE3n2oi1jess1i1f92V95voblQGVe6sMqxZXvd/A23B1o//Guk1Gm8o2fdos2Hx7S8iW+mqr6oqtxK0FW59sS9zW+hvjt5rtBtvLtn/dIdzRuTN2Z0uNR03NLsNdy2rRWklt7+4Ju6/sCdzTWOdQt2Wvzt6yfWCfZN/z/an7bx4IP9B8kHGw7pDloarDtMOl9Uj9jPr+hsyGzsbkxo4jYUeam7ybDh91PLrjmOmxyuPax5edoJwoPjF4svDkwCnRqb7TGae7myc33zsz7sz1lpiW9rPhZ8+fCz53ppXZevK8z/ljF7wuHLnIuNhwyf1SfZtb2+Hf3X4/3O7eXn/Z43LjFc8rTR1jOk5c9bt6+lrgtXPX2dcv3Yi80XEz4ebtWxNudd7m3X52J+fOq7sFdz/fm3efcL/0gfqDioeGD6v/sP1jb6d75/GuwK62R3GP7nVzu188znv8paf4CfVJxVOTpzXPnJ8d6w3uvfJ8/POeF6IXn/tK/tT4s+qlzctDf/n/1dY/rr/nlfjV4Oslb/Tf7Hjr+rZ5IHrg4bvcd5/fl37Q/7DzI+Nj66ekT08/T/tC+rL2q+3Xpm/h3+4P5g4OijhijuxTAIMNTU8H4PUOAKjJANDg/owyXr7/kxki37PKEPhPWL5HlJk7AHXw+z2mD37d3AJg3za4/YL6ahMAiKYCEO8JUBeX4Ta0V5PtK6VGhPuAzZFf03LTwL8x+Z7zh7x/PgOpqiv4+fwvzpJ8P5CR8cwAAABsZVhJZk1NACoAAAAIAAQBGgAFAAAAAQAAAD4BGwAFAAAAAQAAAEYBKAADAAAAAQACAACHaQAEAAAAAQAAAE4AAAAAAAAAkAAAAAEAAACQAAAAAQACoAIABAAAAAEAAAEgoAMABAAAAAEAAACUAAAAAMy5k8AAAAAJcEhZcwAAFiUAABYlAUlSJPAAAA1QSURBVHgB7Z3bbxTXHcdZ33eNb9yMAas2mBAKTRMUHBRMJC4KiYH2BVmoImmRKvpAxQM8RPSt6h+QqHmplAoFKU+JIqTwgMRLiBCRDGmkJE6cpg1YoIJtMOYS40tjUyZKvvObldMl65mzOzsfv/D9nZk9v/P7nN0f58ycOZN68PBvHn8QgAAECkCgrAA+cQkBCEDgOwIkIL4IEIBAwQiQgAqGHscQgAAJiO8ABCBQMAIkoIKhxzEEIEAC4jsAAQgUjAAJqGDocQwBCJCA+A5AAAIFI1BRMM84hkCJEbh165YiOn/+vLQnnn76adnNzc3SZWXJHgMkO3p9DRAQgEAhCJCACkEdnxCAwHcEmILxRYBASASmpqZU07lz56Q9cfHiRdlbtmyR3rx5s3Qmk5FOimAElJSeJk4IFCEBElARdgpNgkBSCDAFS0pPE2dBCQwNDcn/u+++K93b2yvd3d0tvX79eumqqirpUhOMgEqtR4kHAjEiQAKKUWfRVAiUGgGmYKXWo8RT9ATsJqRXr15Ve0+cOCG9evVq6V27dkm3trZKe6KiIt4/YUZAge7EgAAEXBIgAbmkjS8IQCBAIN7jt0AoGBCIN4GJiQkF8Nlnn0kPDAxIP/vss9Ke2L59u+yGhgbpuAhGQHHpKdoJgRIkQAIqwU4lJAjEhQBTsLj0FO1MLIF79+4p9jNnzkh7wi5k3Llzp47Z7T/q6+tVXmyCEVCx9QjtgUCCCJCAEtTZhAqBYiOQcvFq5tu3byvuvr4+aU9MTk4GbAwIxJWAnSqdPXs2EMb4+HjAjsKorKxUte3t7dIvvviidEdHh3QxPGPGCEjdgYAABFwTIAG5Jo4/CEBABEhAQoGAAARcE4jsGtD09LRiefPNN6UvXLggjYAABKInYB9Y7ezslMMdO3ZIL1++XNqlYATkkja+IACBAAESUAAHBgQg4JJAZCuhU6mU4rC7/dfW1qrcE3ZvlMABDAjEjID9LtsHS70w7DHXYaXTabmsqamRrqurky6UYARUKPL4hQAE5pGA+BJAAAIFIxDZXTAbkV0JPTw8bA/Nm5mZCdgYEIgrgdHRUTX9nXfekfbE2NhYwI7CsO+ZX7VqlVzs3r1b2m71Wl5ervJCCUZAhSKPXwhAgCkY3wEIQKBwBCK7C2ZDamxslGm1ChEQKAECg4ODisIu/lNhCMJOs7zq7AJC+9DpE088IW/2IVUVFolgClYkHUEzIJBEAiSgJPY6MUOgSAg4mYIVSaw0AwKxJLBw4UK1O/utGJs3b9axpqYm6bgIRkBx6SnaCYESJEACKsFOJSQIxIUAU7C49BTtLHkCdotUexeru7tbsbe0tEh7IvuuWOBgDAxGQDHoJJoIgVIlQAIq1Z4lLgjEgABTsBh0Ek0sLQL2GazHH39cwb3wwgvS9lkue75OKBHBCKhEOpIwIBBHAiSgOPYabYZAiRAgAZVIRxIGBOJIgGtAcew12lz0BLJvjzc3N6vNW7duld64caP0/PnzpZMiGAElpaeJEwJFSIAEVISdQpMgkBQCTrZkTQpM4kw2gTt37ghA9gs4n3nmGR2rr6+XTrpgBJT0bwDxQ6CABEhABYSPawgknQBTsKR/A4g/NAL25YNWew6y74qF5jTmFTECinkH0nwIxJkACSjOvUfbIRBzAkzBYt6BNB8CcSbACCjOvUfbIRBzAiSgmHcgzYdAnAk4fxYs++6AfW/8wMCAWGafpwMICEREIPtOlX3LhN0uNSL3c67WPktWV1c35/pcVMAIyAVlfEAAArMSIAHNioVCCEDABYHIpmB2CnX58mXF8sYbb0h74vTp07Jv3boljYCAawKpVCrgMpPJyI7Dtqj2GbOdO3eq7QcPHpReunSpdHa8OuBQMAJyCBtXEIBAkAAJKMgDCwIQcEiABOQQNq4gAIEggchWQn/55Zfy1NPTI93X1yftCXutKHAAAwIQyJuAXVLQ1dWleo4fPy5tX/2jQseCEZBj4LiDAAR8AiQgnwUKAhBwTCDUKdiVK1fU/P3790ufO3dOel4qmPMqFqzQsdqW9dLl1WlpBARcEHgwMx1wM3l3WHb2MR0IUZSZZQBrV/grmZc1Ptpv4fPPP1drLl26JG3F888/L/PEiRPS9q0dKnQggtnAgUNcQAACEPiBAAnoBxL8CwEIOCcw55XQ9i6WXeX84YcfzhpM9bJ1gfK2bX+UnV7QKo2AQNIItLT4066//u4phd/RXCv9/4R9E8fhw4d1am9vr/T7778v/dZbb0kfPXpU2qVgBOSSNr4gAIEAARJQAAcGBCDgksCc74LZO1+bNm1S269fvy5d3uA/ALf6139RuSdqmpYHbAwIJJXAn3/7S4X+q6eWSecj7ILf7du3q4rhYf/O3vLl/m+vv79f53jC1X5CjIAC2DEgAAGXBEhALmnjCwIQCBDI6y6YvfN16tQpVTgyMiJtFxwu+Lm/+Km6scU/BwWBhBP4WWuDCGxZs1h6rmLNmjWq4uWXX5Z+9dVXpe1lkpMnT6rcE/YzgQMhG4yAQgZKdRCAwKMTIAE9OivOhAAEQiaQ1xRsYmJCzbALDqemplSeqqiSXvjYc9KprGfBdAABgYQQsFuhPrfOn3Y1pCtDI1BZ6de1d+9e1Wu347BbINsFit7J+/bt02eifCMIIyBhRkAAAq4JkIBcE8cfBCAgAnlNwe7evasKPvroI2krKha2y6xpnNuiKlWEgEAJEKiqLlcUG9oapcuCL+VQ+VxFZ2enqlixwt/+xk7B7MJF7+QbN27oM3bBogpDEoyAQgJJNRCAwE8nQAL66cz4BAQgEBIBElBIIKkGAhD46QTyugZ0//59eRoYGJC2IrOkw5poCEDgewIVlf41oLZFj7bXz1zg2dv+Tz75pKr69NNPpQcHB6U98c033wTsqAxGQFGRpV4IQCAnARJQTkScAAEIREUgrymYfYjNrn62jUybt13YcjQEkk6gosL/f7+lscYpjo6O2S+N2H2CvAaNjY05aZdPwok7nEAAAhDwCZCAfBYoCEDAMYG8pmB2JfSPtbcy46/w/LFzKIdAEgnYFxBWm+mYCxaLFi2a1U32pZTp6eBLGmf9UAiFjIBCgEgVEIBAfgRIQPlx41MQgEAIBEhAIUCkCghAID8CJKD8uPEpCEAgBAIkoBAgUgUEIJAfgbzugi1ZsiSnt8m7/gvQcp7MCRBIEIGZBw8U7fiUf7cpXeU/I6YTQhZDQ0Oz1lhbG3wmLcptWG0DGAFZGmgIQMApARKQU9w4gwAELIG8pmB2MVMmk1F9dpuOidvXVI6AAAR8At9+OyNj8O6kdPsi/7ekwpDFV199NWuN9jftnZBOp2c9L+xCRkBhE6U+CEDgkQmQgB4ZFSdCAAJhE8hrClZT428hsHLlSrXJ7qx/f/hfKkdAAAI+gf+aO1//HvJ3HoxqCjY+Pi7nn3zyibQVbW1t1pzX1NQUsKMyGAFFRZZ6IQCBnARIQDkRcQIEIBAVARJQVGSpFwIQyEkgr2tA9fX1qnjDhg3S9hrQ9Oh/VH5/ZEA6s7BNGgGBJBKw14D+cXlUCLatXSxdHuJrUnt7e1XvtWuzL49Zu3atzvFEY6Ob/bwYAQWwY0AAAi4JkIBc0sYXBCAQIJDXFKy6ulqV7NixQ/rtt9+Wnpj0V3iO/PMDlac3tUp7IlUW/QN4AYcYECgwgQfmYdTz/TfVmj9sa5duylRJ5yMmze/P/i7tdsrl5f5vb9euXQE3lZWVATsqgxFQVGSpFwIQyEmABJQTESdAAAJREUg9HA76m5Pk4WV01L+K39XVpRq++OIL6bJaf1Vle/efVO6JumXrAjYGBJJK4NhvfqHQezpXSOcjzp49q4/t2bNH2r7zfdWqVSrv7++X9gRTsAAODAhAoBQJMAUrxV4lJgjEhEBed8FsbPahtUOHDunQkSNHpCfH/GnalQ/+pnJPrOj6vezaxSulH94e8zUKAgkg8PfTfYqyzV/rO++xpfNVni1mZvy9heyCw2PHjulUO+2aP9+v65VXXtE5rqZccvi94FeeTQQbAhBwRoAE5Aw1jiAAgWwCc74LZiu8edNfVHXw4EEdOnnypHS2KEv7Y81K85xYqmzOs8NsV9gQiA2B9mb/LRWtTT++Pap9h/vHH3+s+OzdaRU+FC+99JLM119/XbqhoUHapWAE5JI2viAAgQABElAABwYEIOCSQKhTMNtwe+X9wIEDOvTee+9Je2JqaipgY0AAAnMnYO9q9fT0qMLXXntNOvtNGDrgUDACcggbVxCAQJAACSjIAwsCEHBIgATkEDauIACBIIHIrgFZNyMjIzKzrwHZW/Rff/21zpvjM7KqBwGBpBBob/f3E9q3b5/Ctg+jutpqVc5zCEZAOQBxGAIQiI4ACSg6ttQMAQjkIOBkCpajDRyGAAQSSoARUEI7nrAhUAwESEDF0Au0AQIJJUACSmjHEzYEioEACagYeoE2QCChBEhACe14woZAMRAgARVDL9AGCCSUAAkooR1P2BAoBgIkoGLoBdoAgYQSIAEltOMJGwLFQOB/XJMwAPSA7U0AAAAASUVORK5CYII=;" parent="1" vertex="1">
          <mxGeometry x="560" y="-1084.7200000000003" width="57.84" height="29.72" as="geometry" />
        </mxCell>
        <mxCell id="b9h8UNRZV26uDY9mIO9D-72" style="edgeStyle=orthogonalEdgeStyle;rounded=0;orthogonalLoop=1;jettySize=auto;html=1;dashed=1;fontColor=#000000;endArrow=block;endFill=1;" parent="1" source="pi-8fzJARmSawF2j8Gif-63" target="pi-8fzJARmSawF2j8Gif-61" edge="1">
          <mxGeometry relative="1" as="geometry" />
        </mxCell>
        <mxCell id="b9h8UNRZV26uDY9mIO9D-89" style="edgeStyle=orthogonalEdgeStyle;rounded=0;orthogonalLoop=1;jettySize=auto;html=1;dashed=1;fontColor=#000000;endArrow=block;endFill=1;" parent="1" source="pi-8fzJARmSawF2j8Gif-14" target="pi-8fzJARmSawF2j8Gif-12" edge="1">
          <mxGeometry relative="1" as="geometry" />
        </mxCell>
        <mxCell id="b9h8UNRZV26uDY9mIO9D-90" style="edgeStyle=orthogonalEdgeStyle;rounded=0;orthogonalLoop=1;jettySize=auto;html=1;entryX=0.17;entryY=0.989;entryDx=0;entryDy=0;entryPerimeter=0;dashed=1;fontColor=#000000;endArrow=block;endFill=1;exitX=1.018;exitY=0.892;exitDx=0;exitDy=0;exitPerimeter=0;" parent="1" source="pi-8fzJARmSawF2j8Gif-41" target="b9h8UNRZV26uDY9mIO9D-16" edge="1">
          <mxGeometry relative="1" as="geometry" />
        </mxCell>
        <mxCell id="fKWy_S4QCWtrlONpLwpj-3" style="edgeStyle=orthogonalEdgeStyle;rounded=0;orthogonalLoop=1;jettySize=auto;html=1;dashed=1;fontColor=#000000;endArrow=block;endFill=1;exitX=0.5;exitY=1;exitDx=0;exitDy=0;" edge="1" parent="1" source="pi-8fzJARmSawF2j8Gif-104" target="pi-8fzJARmSawF2j8Gif-41">
          <mxGeometry relative="1" as="geometry">
            <mxPoint x="940" y="-665" as="targetPoint" />
            <mxPoint x="1210" y="-760" as="sourcePoint" />
            <Array as="points">
              <mxPoint x="1199" y="-680" />
            </Array>
          </mxGeometry>
        </mxCell>
      </root>
    </mxGraphModel>
  </diagram>
</mxfile>
